<svg width="25" height="25" viewBox="0 0 25 25" fill="none" xmlns="http://www.w3.org/2000/svg">
<rect width="24.4444" height="24.4444" rx="12.2222" fill="#F4F5F7"/>
<path opacity="0.3" d="M19.0969 6.62085H5.34784L5.8571 17.6965H18.5876L19.0969 6.62085Z" fill="#2B3367"/>
<path opacity="0.3" d="M19.0968 6.62085H5.34781L11.6811 11.3469H12.8588L19.0968 6.62085Z" fill="#2B3367"/>
<path opacity="0.1" d="M6.49307 17.6968L12.2222 12.5405L17.9514 17.6968H6.49307Z" fill="#2B3367"/>
<path fill-rule="evenodd" clip-rule="evenodd" d="M6.49421 7.57638C6.49421 7.04933 6.06723 6.62158 5.53942 6.62158C5.01237 6.62158 4.58463 7.04933 4.58463 7.57638C4.58463 9.60971 4.58463 14.36 4.58463 16.5514C4.58463 17.1847 5.09792 17.6972 5.73038 17.6972C6.13674 17.6972 6.49421 17.6972 6.49421 17.6972C6.49421 17.6972 6.49421 10.2643 6.49421 7.57638Z" fill="#2B3367"/>
<path fill-rule="evenodd" clip-rule="evenodd" d="M17.9511 7.57564C17.9511 7.0486 18.3789 6.62085 18.9059 6.62085C18.9067 6.62085 18.9074 6.62085 18.9074 6.62085C19.4345 6.62085 19.8607 7.04783 19.8607 7.57412C19.8607 9.60668 19.8607 14.3585 19.8607 16.5507C19.8607 17.1839 19.3482 17.6965 18.7149 17.6965C18.3093 17.6965 17.9511 17.6965 17.9511 17.6965C17.9511 17.6965 17.9511 10.2636 17.9511 7.57564Z" fill="#2B3367"/>
<path fill-rule="evenodd" clip-rule="evenodd" d="M5.06051 8.40216C4.84129 8.27537 4.68165 8.0676 4.61596 7.82318C4.55027 7.57875 4.58465 7.31904 4.71144 7.09982C4.71144 7.09982 4.71221 7.09906 4.71221 7.0983C4.839 6.87908 5.04753 6.71943 5.29196 6.65374C5.53638 6.58805 5.79685 6.62243 6.01607 6.74922L12.2222 10.3324L18.4299 6.74846C18.6491 6.62166 18.9088 6.58729 19.1533 6.65298C19.3977 6.71867 19.6055 6.87831 19.7323 7.09753L19.733 7.0983C19.8598 7.31752 19.8942 7.57875 19.8285 7.82318C19.7628 8.0676 19.6024 8.27613 19.3832 8.40293L14.1318 11.4346L12.2222 12.5376L10.3126 11.4346L5.06051 8.40216Z" fill="#2B3367"/>
</svg>
