<svg width="26" height="25" viewBox="0 0 26 25" fill="none" xmlns="http://www.w3.org/2000/svg">
<g clip-path="url(#clip0)">
<rect x="0.888885" width="24.4444" height="24.4444" rx="12.2222" fill="#F4F5F7"/>
<path d="M19.1013 9.58043C19.1013 9.71411 19.1013 9.84779 19.1013 9.96238C19.1013 13.9155 16.0839 18.4797 10.5839 18.4797C8.88425 18.4797 7.31828 17.9832 5.98148 17.1429C6.21064 17.162 6.45891 17.1811 6.68807 17.1811C8.08217 17.1811 9.38078 16.7037 10.412 15.9016C9.09432 15.8825 7.98668 15.004 7.62384 13.82C7.81481 13.8582 7.98668 13.8773 8.19675 13.8773C8.46411 13.8773 8.73148 13.8391 8.97974 13.7627C7.60474 13.4954 6.57349 12.2922 6.57349 10.8408C6.57349 10.8218 6.57349 10.8218 6.57349 10.8027C6.97453 11.0318 7.43286 11.1655 7.92939 11.1846C7.12731 10.6499 6.59259 9.73321 6.59259 8.68286C6.59259 8.12904 6.74536 7.61342 6.99363 7.17418C8.46411 8.98842 10.6794 10.1724 13.162 10.3061C13.1047 10.0961 13.0856 9.84779 13.0856 9.61863C13.0856 7.95717 14.4224 6.62036 16.0839 6.62036C16.9433 6.62036 17.7263 6.98321 18.261 7.55613C18.9485 7.42244 19.5787 7.17418 20.1707 6.83043C19.9415 7.53703 19.4641 8.10994 18.853 8.49189C19.4641 8.4155 20.037 8.26272 20.5718 8.01446C20.1898 8.62557 19.6933 9.16029 19.1013 9.58043Z" fill="#2B3367"/>
</g>
<defs>
<clipPath id="clip0">
<rect width="24.4444" height="24.4444" fill="white" transform="translate(0.888885)"/>
</clipPath>
</defs>
</svg>
