<svg width="82" height="82" viewBox="0 0 82 82" fill="none" xmlns="http://www.w3.org/2000/svg">
<circle cx="41" cy="41" r="41" fill="#F4F5F7"/>
<path d="M43.4681 45.76C40.7621 45.429 39.5731 43.908 37.1951 40.871C40.2341 38.495 41.7541 37.306 44.4611 37.636C47.1711 37.968 49.7111 39.652 50.7341 42.525C49.0511 45.068 46.1771 46.088 43.4681 45.76ZM37.5091 54.574C34.9601 54.387 33.7761 53.021 31.4111 50.286C34.1461 47.922 35.5131 46.739 38.0631 46.922C40.6141 47.107 43.0721 48.566 44.1611 51.209C42.7021 53.667 40.0611 54.757 37.5091 54.574ZM31.2891 38.867C32.6271 40.498 32.4801 41.984 32.1871 44.955C29.2171 44.661 27.7311 44.515 26.3921 42.884C25.0531 41.25 24.5311 38.949 25.4941 36.796C27.7951 36.272 29.9501 37.235 31.2891 38.867ZM52.4051 33.419C49.9701 34.439 48.2451 33.733 44.7921 32.322C46.2031 28.869 46.9101 27.142 49.3411 26.119C51.7751 25.098 54.7191 25.293 56.9531 27.215C56.7591 30.159 54.8361 32.396 52.4051 33.419ZM39.6541 29.866C40.5281 32.735 39.5301 34.608 37.5351 38.354C33.7901 36.358 31.9161 35.36 31.0411 32.49C30.1651 29.618 30.7261 26.31 33.1591 24C36.4671 24.561 38.7781 26.993 39.6541 29.866Z" fill="#77B255"/>
<path d="M31.0412 32.49C31.9032 35.318 33.7432 36.333 37.3792 38.271V38.266C37.3092 35.745 34.6462 27.39 33.1122 24.052C30.7232 26.36 30.1712 29.639 31.0412 32.49ZM25.4492 36.919C24.5592 39.037 25.0782 41.281 26.3922 42.884C27.7322 44.516 29.2182 44.661 32.1872 44.955C31.1902 43.018 27.2762 38.567 25.4492 36.919Z" fill="#A6D388"/>
<path d="M44.4612 37.636C41.8982 37.324 40.3842 38.386 37.6532 40.515C39.3992 40.62 46.4392 41.26 50.7132 42.552C50.7192 42.542 50.7282 42.535 50.7342 42.525C49.7112 39.652 47.1712 37.968 44.4612 37.636ZM44.1572 51.201C43.0662 48.564 40.6122 47.107 38.0632 46.922C35.5632 46.743 34.1932 47.883 31.5652 50.154C34.3322 49.849 39.4702 49.284 44.1572 51.201Z" fill="#5C913B"/>
<path d="M44.9722 32.395C48.2992 33.754 50.0152 34.419 52.4042 33.419C54.8232 32.401 56.7362 30.18 56.9462 27.259C53.0242 28.02 46.5552 31.409 44.9722 32.395Z" fill="#A6D388"/>
<path d="M27.3021 58.3189C26.7181 58.2279 25.9391 57.4879 26.0291 56.9029C26.5751 53.3409 28.8871 44.7349 44.3271 32.1479C44.7851 31.7729 45.3031 31.4889 45.6911 31.9359C46.0821 32.3829 45.6391 32.8859 45.1931 33.2749C31.9051 44.8449 29.6791 54.0089 29.1701 57.3399C29.0791 57.9249 27.8871 58.4069 27.3021 58.3189Z" fill="#A06253"/>
</svg>
