<svg width="82" height="82" viewBox="0 0 82 82" fill="none" xmlns="http://www.w3.org/2000/svg">
<circle cx="41" cy="41" r="41" fill="#F4F5F7"/>
<path d="M54 25H28C26.343 25 25 26.343 25 28V54C25 55.657 26.343 57 28 57H54C55.657 57 57 55.657 57 54V28C57 26.343 55.657 25 54 25Z" fill="#CCD6DD"/>
<path d="M54 24H28C25.791 24 24 25.791 24 28V54C24 56.209 25.791 58 28 58H54C56.209 58 58 56.209 58 54V28C58 25.791 56.209 24 54 24ZM54 26C55.103 26 56 26.897 56 28V32H50V26H54ZM50 42H56V48H50V42ZM50 40V34H56V40H50ZM48 26V32H42V26H48ZM42 34H48V40H42V34ZM42 42H48V48H42V42ZM40 26V32H34V26H40ZM34 34H40V40H34V34ZM34 42H40V48H34V42ZM26 28C26 26.897 26.897 26 28 26H32V32H26V28ZM26 34H32V40H26V34ZM26 42H32V48H26V42ZM28 56C26.897 56 26 55.103 26 54V50H32V56H28ZM34 56V50H40V56H34ZM42 56V50H48V56H42ZM54 56H50V50H56V54C56 55.103 55.103 56 54 56Z" fill="#E1E8ED"/>
<path d="M36 56H30V39C30 37.896 30.896 37 32 37H34C35.104 37 36 37.896 36 39V56Z" fill="#5C913B"/>
<path d="M52 56H46V32C46 30.896 46.896 30 48 30H50C51.104 30 52 30.896 52 32V56Z" fill="#3B94D9"/>
<path d="M44 56H38V46C38 44.896 38.896 44 40 44H42C43.104 44 44 44.896 44 46V56Z" fill="#DD2E44"/>
</svg>
