<svg width="82" height="82" viewBox="0 0 82 82" fill="none" xmlns="http://www.w3.org/2000/svg">
<circle cx="41" cy="41" r="41" fill="#F4F5F7"/>
<path d="M29.3347 51.5503C34.3407 56.5563 45.8367 63.5193 58.8677 51.4803C51.5017 50.0633 50.2057 40.6913 45.1987 35.6863C40.1927 30.6793 33.2077 29.5473 28.2007 34.5533C23.1947 39.5593 24.3277 46.5433 29.3347 51.5503Z" fill="#A6D388"/>
<path d="M47.6178 52.8103C53.7458 54.4443 58.2758 52.0723 58.6938 51.6543C58.6938 51.6543 54.9078 53.4053 48.3348 50.1783C49.2868 48.9663 52.1888 47.2693 52.1888 47.2693C51.6358 46.9233 48.1108 47.0443 45.7038 48.6983C44.5458 47.9653 43.3198 47.0813 42.0308 46.0233L42.8708 45.1523C46.1208 41.7683 49.8148 42.5683 49.8148 42.5683C49.1768 41.9553 44.2158 39.1273 40.2318 43.2683L39.6188 43.9063C39.1928 43.5073 38.7628 43.0943 38.3248 42.6563L36.4748 40.8063L37.5388 39.7413C40.8598 36.4213 45.7648 36.2903 45.7648 36.2903C45.1388 35.6633 38.9018 33.6413 34.8408 37.7023L34.1048 38.4373L25.8128 30.1433C25.1868 29.5163 24.1208 29.5683 23.4958 30.1933C22.8698 30.8193 22.8188 31.8843 23.4448 32.5103L31.7378 40.8033L31.6788 40.8623C27.6178 44.9243 29.3038 51.4963 29.9308 52.1233C29.9308 52.1233 30.3988 46.8813 33.7198 43.5613L34.1068 43.1733L37.6078 46.6753C37.6648 46.7323 37.7208 46.7813 37.7778 46.8383C35.3528 51.6353 39.0068 57.1783 39.7358 57.6223C39.7358 57.6223 38.2708 52.8993 40.2158 48.9873C41.7418 50.1823 43.2358 51.0823 44.6728 51.7423C44.7558 54.7353 47.3798 57.4423 48.0168 57.6733C48.0168 57.6733 47.1058 54.6703 47.4828 53.1863L47.6178 52.8103Z" fill="#77B255"/>
<path d="M45.0167 33.0003C44.6207 33.0003 44.2457 32.7623 44.0887 32.3723C43.8837 31.8603 44.1307 31.2803 44.6417 31.0733C44.8077 31.0053 48.6577 29.3753 49.0577 24.9103C49.1077 24.3613 49.5817 23.9593 50.1427 24.0033C50.6937 24.0523 51.0987 24.5383 51.0497 25.0883C50.5377 30.7993 45.5987 32.8433 45.3887 32.9273C45.2667 32.9773 45.1407 33.0003 45.0167 33.0003ZM50.0167 37.0003C49.6027 37.0003 49.2157 36.7413 49.0727 36.3293C48.8917 35.8093 49.1647 35.2413 49.6827 35.0583C49.8707 34.9903 54.2077 33.3473 55.0627 26.8703C55.1347 26.3233 55.6237 25.9353 56.1847 26.0103C56.7327 26.0823 57.1177 26.5843 57.0447 27.1323C56.0237 34.8823 50.5767 36.8653 50.3457 36.9453C50.2367 36.9823 50.1257 37.0003 50.0167 37.0003ZM53.0177 43.0003C52.6647 43.0003 52.3237 42.8123 52.1407 42.4813C51.8747 41.9983 52.0517 41.3903 52.5347 41.1243C52.5617 41.1093 55.2857 39.5883 56.1357 37.6063C56.3537 37.0983 56.9437 36.8643 57.4477 37.0813C57.9557 37.2983 58.1907 37.8863 57.9727 38.3943C56.8497 41.0143 53.6337 42.8023 53.4977 42.8773C53.3447 42.9603 53.1807 43.0003 53.0177 43.0003Z" fill="#5DADEC"/>
</svg>
