<svg width="82" height="82" viewBox="0 0 82 82" fill="none" xmlns="http://www.w3.org/2000/svg">
<circle cx="41" cy="41" r="41" fill="#F4F5F7"/>
<path d="M52 33.92C52 40.359 47 41.359 47 47.36C47 50.458 43.877 50.719 41.5 50.719C39.447 50.719 34.914 49.94 34.914 47.358C34.914 41.36 30 40.36 30 33.92C30 27.889 35.285 23 41.083 23C46.883 23 52 27.889 52 33.92Z" fill="#FFD983"/>
<path d="M45.167 55.36C45.167 56.188 42.933 57.86 41 57.86C39.067 57.86 36.833 56.188 36.833 55.36C36.833 54.532 39.066 54.86 41 54.86C42.933 54.86 45.167 54.532 45.167 55.36Z" fill="#CCD6DD"/>
<path d="M45.707 33.153C45.316 32.762 44.684 32.762 44.293 33.153L41 36.446L37.707 33.153C37.316 32.762 36.684 32.762 36.293 33.153C35.902 33.544 35.902 34.176 36.293 34.567L40 38.274V48.86C40 49.413 40.448 49.86 41 49.86C41.552 49.86 42 49.413 42 48.86V38.274L45.707 34.567C46.098 34.176 46.098 33.544 45.707 33.153Z" fill="#FFCC4D"/>
<path d="M47 53.86C47 54.964 46.104 55.86 45 55.86H37C35.896 55.86 35 54.964 35 53.86V47.86H47V53.86Z" fill="#99AAB5"/>
<path d="M34.9991 54.86C34.5191 54.86 34.0951 54.513 34.0141 54.024C33.9231 53.48 34.2911 52.964 34.8361 52.874L46.8361 50.874C47.3801 50.776 47.8961 51.151 47.9861 51.696C48.0771 52.24 47.7091 52.756 47.1641 52.846L35.1641 54.846C35.1091 54.856 35.0531 54.86 34.9991 54.86ZM34.9991 50.86C34.5191 50.86 34.0951 50.513 34.0141 50.024C33.9231 49.48 34.2911 48.964 34.8361 48.874L46.8361 46.874C47.3801 46.777 47.8961 47.151 47.9861 47.696C48.0771 48.24 47.7091 48.756 47.1641 48.846L35.1641 50.846C35.1091 50.856 35.0531 50.86 34.9991 50.86Z" fill="#CCD6DD"/>
</svg>
