<svg width="82" height="82" viewBox="0 0 82 82" fill="none" xmlns="http://www.w3.org/2000/svg">
<circle cx="41" cy="41" r="41" fill="#F4F5F7"/>
<path d="M54.898 46.938C54.3 40.32 51 37 51 37L45 29H37L31 37C31 37 29.581 38.433 28.433 41.275C26.444 41.935 25 43.789 25 46C25 47.448 25.625 48.742 26.609 49.655C26.233 50.357 26 51.147 26 52C26 53.958 27.136 55.636 28.775 56.456C30.058 58.378 31.772 59 33 59H49C50.379 59 52.373 58.221 53.678 55.69C55.609 54.999 57 53.17 57 51C57 49.322 56.166 47.846 54.898 46.938ZM41 29C41.55 29 42.058 28.842 42.5 28.584C42.943 28.842 43.451 29 44 29C45.657 29 48 26.656 48 25C48 25 48 23 46 23C45.212 23 45 24 44 24C43 24 43 23 41 23C39 23 39 24 38 24C37 24 36.789 23 36 23C34 23 34 25 34 25C34 26.656 36.344 29 38 29C38.549 29 39.057 28.842 39.5 28.584C39.943 28.842 40.451 29 41 29Z" fill="#FDD888"/>
<path d="M47 29C47 29.552 46.553 30 46 30H36C35.448 30 35 29.552 35 29C35 28.448 35.448 28 36 28H46C46.553 28 47 28.448 47 29Z" fill="#BF6952"/>
<path d="M46.901 47.542C46.901 43.065 38.32 43.357 38.32 40.656C38.32 39.348 39.621 38.709 41.131 38.709C43.669 38.709 44.121 40.278 45.27 40.278C46.083 40.278 46.475 39.785 46.475 39.232C46.475 37.948 44.451 36.976 42.51 36.64V35.4C42.51 34.627 41.86 34 41.056 34C40.251 34 39.6 34.627 39.6 35.4V36.683C37.484 37.146 35.663 38.558 35.663 40.859C35.663 45.158 44.242 44.984 44.242 48.004C44.242 49.051 43.064 50.097 41.131 50.097C38.23 50.097 37.264 48.208 36.086 48.208C35.512 48.208 34.999 48.672 34.999 49.372C34.999 50.485 36.937 51.823 39.602 52.196L39.601 52.206V53.604C39.601 54.376 40.253 55.004 41.057 55.004C41.861 55.004 42.512 54.376 42.512 53.604V52.206C42.512 52.189 42.504 52.176 42.503 52.161C44.901 51.731 46.901 50.229 46.901 47.542Z" fill="#67757F"/>
</svg>
