<svg width="82" height="82" viewBox="0 0 82 82" fill="none" xmlns="http://www.w3.org/2000/svg">
<circle cx="41" cy="41" r="41" fill="#F4F5F7"/>
<path d="M42.3938 44.2175L36.0528 37.8755L35.6638 42.2555L38.0138 44.6065L42.3938 44.2175Z" fill="#66757F"/>
<path d="M38.0138 45.1055C37.8818 45.1055 37.7548 45.0525 37.6598 44.9595L35.3088 42.6085C35.2048 42.5045 35.1508 42.3585 35.1638 42.2115L35.5528 37.8315C35.5698 37.6385 35.6978 37.4725 35.8798 37.4065C36.0618 37.3395 36.2678 37.3855 36.4038 37.5225L42.7448 43.8645C42.8828 44.0025 42.9278 44.2065 42.8608 44.3885C42.7938 44.5705 42.6288 44.6985 42.4348 44.7155L38.0558 45.1045L38.0138 45.1055ZM36.1818 42.0665L38.2028 44.0875L41.2838 43.8145L36.4558 38.9865L36.1818 42.0665Z" fill="#66757F"/>
<path d="M53.6138 54.8726H50.6138C50.6138 51.5586 47.9837 48.8726 44.7388 48.8726C41.4948 48.8726 38.8638 51.5586 38.8638 54.8726H31.3437C31.3437 53.7686 30.4488 52.8726 29.3438 52.8726C28.2397 52.8726 27.3438 53.7686 27.3438 54.8726C26.2398 54.8726 25.3438 55.7686 25.3438 56.8726C25.3438 57.9766 26.2398 58.8726 27.3438 58.8726H53.6138C54.7178 58.8726 55.6138 57.9766 55.6138 56.8726C55.6138 55.7686 54.7178 54.8726 53.6138 54.8726Z" fill="#8899A6"/>
<path d="M42.6139 32.8726V36.8726C46.4799 36.8726 49.6139 40.0066 49.6139 43.8726C49.6139 47.7386 46.4799 50.8726 42.6139 50.8726H34.1289C36.1469 53.3156 39.1979 54.8726 42.6139 54.8726C48.6889 54.8726 53.6139 49.9476 53.6139 43.8726C53.6139 37.7976 48.6889 32.8726 42.6139 32.8726Z" fill="#8899A6"/>
<path d="M39.0279 53.2865C38.2469 54.0675 36.9809 54.0675 36.1999 53.2865L26.3009 43.3865C25.5199 42.6055 25.5199 41.3395 26.3009 40.5585C27.0819 39.7775 28.3479 39.7775 29.1299 40.5585L39.0289 50.4585C39.8089 51.2395 39.8089 52.5055 39.0279 53.2865ZM31.8029 51.5005C32.3499 51.4235 32.8549 51.8045 32.9319 52.3515C33.0089 52.8985 32.6269 53.4045 32.0809 53.4805L26.1389 54.3145C25.5919 54.3915 25.0869 54.0095 25.0099 53.4635C24.9329 52.9165 25.3149 52.4105 25.8619 52.3335L31.8029 51.5005Z" fill="#67757F"/>
<path d="M49.9549 25.8525L54.4159 30.3135L50.6099 34.1205L46.1489 29.6595L49.9549 25.8525Z" fill="#66757F"/>
<path d="M56.6508 29.9555C55.8238 30.7825 54.4808 30.7825 53.6538 29.9555L50.3148 26.6155C49.4878 25.7895 49.4878 24.4465 50.3148 23.6195C51.1418 22.7935 52.4848 22.7935 53.3098 23.6195L56.6518 26.9595C57.4778 27.7865 57.4778 29.1275 56.6508 29.9555ZM42.0908 44.9815L35.2888 38.1785C34.8998 37.7895 34.8998 37.1535 35.2888 36.7645L45.1468 26.9065C45.5358 26.5175 46.1718 26.5175 46.5608 26.9065L53.3618 33.7095C53.7508 34.0985 53.7508 34.7345 53.3618 35.1235L43.5038 44.9815C43.1158 45.3705 42.4798 45.3705 42.0908 44.9815Z" fill="#AAB8C2"/>
<path d="M36.3799 35.6725L38.0179 34.0355L46.2339 42.2515L44.5959 43.8885L36.3799 35.6725Z" fill="#E1E8ED"/>
</svg>
