<svg width="82" height="82" viewBox="0 0 82 82" fill="none" xmlns="http://www.w3.org/2000/svg">
<circle cx="41" cy="41" r="41" fill="#F4F5F7"/>
<path d="M47.0369 36.248H35.0369C35.0369 36.248 30.0369 42.248 30.0369 46.248C30.0369 50.248 41.0369 57.248 41.0369 57.248C41.0369 57.248 52.0369 50.248 52.0369 46.248C52.0369 42.248 47.0369 36.248 47.0369 36.248Z" fill="#31373D"/>
<path d="M42.6768 23.528C41.7757 22.824 40.2997 22.824 39.3987 23.528L24.6758 35.024C23.7747 35.728 23.7747 36.88 24.6758 37.584L39.3977 49.079C40.2997 49.783 41.7747 49.783 42.6758 49.079L57.3978 37.584C58.2998 36.88 58.2998 35.728 57.3978 35.024L42.6768 23.528Z" fill="#292F33"/>
<path d="M42.6768 23.528C41.7757 22.824 40.2997 22.824 39.3987 23.528L24.6758 35.024C23.7747 35.728 23.7747 36.88 24.6758 37.584L39.3977 49.079C40.2987 49.783 41.7747 49.783 42.6758 49.079L57.3988 37.584C58.2998 36.88 58.2998 35.728 57.3988 35.024L42.6768 23.528Z" fill="#394146"/>
<path d="M31.0369 47.248C31.0369 47.248 29.0369 49.248 29.0369 50.248V56.248C29.0369 56.248 29.0369 58.248 31.0369 58.248C33.0369 58.248 33.0369 56.248 33.0369 56.248V50.248C33.0369 49.248 31.0369 47.248 31.0369 47.248Z" fill="#FCAB40"/>
<path d="M31.0369 51.248C32.6937 51.248 34.0369 49.9049 34.0369 48.248C34.0369 46.5912 32.6937 45.248 31.0369 45.248C29.38 45.248 28.0369 46.5912 28.0369 48.248C28.0369 49.9049 29.38 51.248 31.0369 51.248Z" fill="#FDD888"/>
<path d="M31.0378 49.248C30.4858 49.248 30.0378 48.801 30.0378 48.248V44.29C29.9958 43.656 30.2248 42.254 31.3548 41.406L40.3768 33.496C40.7928 33.131 41.4248 33.173 41.7878 33.589C42.1518 34.004 42.1098 34.636 41.6948 35L32.6148 42.958C32.0108 43.414 32.0368 44.23 32.0368 44.238L32.0388 48.248C32.0388 48.801 31.5908 49.248 31.0378 49.248Z" fill="#FCAB40"/>
<path d="M41.0369 38.248C42.6937 38.248 44.0369 36.9049 44.0369 35.248C44.0369 33.5912 42.6937 32.248 41.0369 32.248C39.38 32.248 38.0369 33.5912 38.0369 35.248C38.0369 36.9049 39.38 38.248 41.0369 38.248Z" fill="#31373D"/>
</svg>
