<svg width="82" height="82" viewBox="0 0 82 82" fill="none" xmlns="http://www.w3.org/2000/svg">
<circle cx="41" cy="41" r="41" fill="#F4F5F7"/>
<path d="M47 35C47 36.104 46.104 37 45 37H37C35.896 37 35 36.104 35 35V27C35 25.896 35.896 25 37 25H45C46.104 25 47 25.896 47 27V35ZM23 39V59C23 60.104 23.896 61 25 61H57C58.104 61 59 60.104 59 59V39H23Z" fill="#CCD6DD"/>
<path d="M41 37H25C23.896 37 23 37.896 23 39H43C43 37.896 42.104 37 41 37Z" fill="#99AAB5"/>
<path d="M57 37H41C39.896 37 39 37.896 39 39H59C59 37.896 58.104 37 57 37Z" fill="#99AAB5"/>
<path d="M25 47H57V51H25V47ZM25 41H57V45H25V41ZM25 53H57V57H25V53Z" fill="#55ACEE"/>
<path d="M31 37H51V61H31V37Z" fill="#E1E8ED"/>
<path d="M33 45H49V49H33V45ZM33 39H49V43H33V39ZM33 51H49V55H33V51Z" fill="#55ACEE"/>
<path d="M36 57H46V61H36V57Z" fill="#3B88C3"/>
<path d="M45 29H42V26H40V29H37V31H40V34H42V31H45V29Z" fill="#DD2E44"/>
<path d="M49 35H33C31.896 35 31 35.896 31 37H51C51 35.896 50.104 35 49 35Z" fill="#99AAB5"/>
</svg>
