<svg width="82" height="82" viewBox="0 0 82 82" fill="none" xmlns="http://www.w3.org/2000/svg">
<circle cx="41" cy="41" r="41" fill="#F4F5F7"/>
<path d="M36.7769 42.7603C38.4449 42.7603 44.2069 47.1053 44.2039 52.4613C44.2069 57.8193 29.3509 57.8193 29.3499 52.4603C29.3509 47.1043 35.1089 42.7603 36.7769 42.7603Z" fill="#99AAB5"/>
<path d="M34.5717 46.4213C43.4107 55.2613 51.9087 51.5843 54.6047 48.8903C57.2997 46.1943 54.4467 38.9743 48.2337 32.7613C42.0187 26.5473 34.7977 23.6943 32.1027 26.3893C29.4077 29.0843 25.7317 37.5823 34.5717 46.4213Z" fill="#CCD6DD"/>
<path d="M38.4738 42.5173C44.6878 48.7313 51.9078 51.5833 54.6038 48.8893C57.2988 46.1933 54.4458 38.9733 48.2328 32.7603C42.0188 26.5473 34.7978 23.6943 32.1028 26.3893C29.4078 29.0843 32.2608 36.3053 38.4738 42.5173Z" fill="#66757F"/>
<path d="M48.2328 32.7602C48.6758 33.2042 48.6758 33.9232 48.2328 34.3672L40.9998 41.5982C40.5558 42.0422 39.8368 42.0422 39.3928 41.5982C38.9488 41.1552 38.9488 40.4352 39.3928 39.9912L46.6248 32.7602C47.0698 32.3162 47.7878 32.3162 48.2328 32.7602Z" fill="#CCD6DD"/>
<path d="M49.8397 31.1543C50.7267 32.0413 50.7267 33.4813 49.8397 34.3683C48.9517 35.2563 47.5127 35.2563 46.6247 34.3683C45.7377 33.4813 45.7377 32.0413 46.6247 31.1543C47.5117 30.2653 48.9517 30.2653 49.8397 31.1543Z" fill="#CCD6DD"/>
<path d="M54.3177 34.3172L54.2667 34.3162C53.7147 34.2892 53.2907 33.8192 53.3177 33.2682C53.3187 33.2522 53.3807 31.1112 51.7377 29.4682C50.0997 27.8312 47.9657 27.8892 47.9367 27.8882C47.3867 27.9212 46.9157 27.4902 46.8877 26.9402C46.8607 26.3882 47.2847 25.9182 47.8367 25.8912C47.9587 25.8792 50.8647 25.7682 53.1507 28.0542C55.4377 30.3422 55.3207 33.2452 55.3147 33.3682C55.2887 33.9012 54.8467 34.3172 54.3177 34.3172Z" fill="#FFAC33"/>
<path d="M57.8768 33.7613C57.7678 33.7613 57.6558 33.7423 57.5468 33.7043C57.0258 33.5213 56.7508 32.9513 56.9338 32.4303C56.9678 32.3233 57.8268 29.5543 54.7388 26.4673C51.6128 23.3403 48.6128 24.0533 48.4868 24.0853C47.9578 24.2223 47.4098 23.9013 47.2708 23.3703C47.1308 22.8393 47.4428 22.2963 47.9718 22.1533C48.1418 22.1073 52.1768 21.0763 56.1528 25.0543C60.1688 29.0683 58.8788 32.9303 58.8208 33.0933C58.6768 33.5033 58.2898 33.7613 57.8768 33.7613Z" fill="#FFAC33"/>
<path d="M36.9449 53.7603C34.0449 53.7603 31.4019 53.1023 29.3789 52.0233C29.3709 52.1693 29.3499 52.3133 29.3499 52.4613C29.3509 57.8203 44.2069 57.8203 44.2039 52.4623C44.2039 52.3723 44.1889 52.2853 44.1859 52.1963C42.2089 53.1723 39.6899 53.7603 36.9449 53.7603Z" fill="#66757F"/>
</svg>
