<svg width="82" height="82" viewBox="0 0 82 82" fill="none" xmlns="http://www.w3.org/2000/svg">
<circle cx="41" cy="41" r="41" fill="#F4F5F7"/>
<path d="M60.444 28.1694C60.444 37.3921 65.2213 43.7254 65.2213 48.1694C65.2213 52.6134 62.6667 61.9467 42.2227 61.9467C21.7787 61.9467 18.7773 49.3907 18.7773 44.5027C18.7773 21.6134 60.444 11.8361 60.444 28.1694Z" fill="#EFEFEF"/>
<path d="M51.3254 20.4937L52.2682 19.5508L54.1539 21.4365L53.2111 22.3793L51.3254 20.4937Z" fill="#A4AFC1"/>
<path d="M56.7458 25.9164L57.6887 24.9736L59.5743 26.8592L58.6315 27.802L56.7458 25.9164Z" fill="#A4AFC1"/>
<path d="M51.0869 26.8512L52.9725 24.9656L53.9153 25.9084L52.0297 27.794L51.0869 26.8512Z" fill="#A4AFC1"/>
<path d="M56.5083 21.4307L58.3939 19.545L59.3367 20.4879L57.4511 22.3735L56.5083 21.4307Z" fill="#A4AFC1"/>
<path d="M46.3333 30C47.8 30 49 31.2 49 32.6667V53.3333C49 54.8067 47.8067 56 46.3333 56H29.6667C28.2 56 27 54.8 27 53.3333V32.6667C27 31.2 28.2 30 29.6667 30H46.3333Z" fill="#F3F3F1"/>
<path d="M38 52C41.866 52 45 48.866 45 45C45 41.134 41.866 38 38 38C34.134 38 31 41.134 31 45C31 48.866 34.134 52 38 52Z" fill="#F3F3F1"/>
<path d="M31 45C31 45.8933 31.1733 46.7467 31.48 47.5333H32C32.52 47.5333 32.9733 47.3333 33.3067 47C33.64 46.6667 33.8533 46.2133 33.8533 45.6933C33.8667 45.24 34.0267 44.8133 34.2933 44.48C34.5867 44.1467 34.96 43.9067 35.4133 43.8133C36.56 43.56 37.3867 42.5467 37.3867 41.3734V40.7067C37.3867 39.7467 36.9867 38.8534 36.3067 38.2267C33.2533 38.96 31 41.72 31 45Z" fill="#D5AF36"/>
<path d="M43.4401 45.4267L43.0001 45.3067C42.6401 45.2133 42.2401 45.1867 41.8668 45.24C41.0934 45.3333 40.3601 45.7467 39.8534 46.3733C38.8001 47.7467 38.9334 49.7067 40.1867 50.8933L40.7467 51.44C43.2268 50.3733 44.9734 47.9333 45.0001 45.0667C44.5734 45.4133 44.0001 45.5733 43.4401 45.4267Z" fill="#D5AF36"/>
<path d="M43.6666 28.6667V30.6667C43.6666 31.4027 43.0693 32 42.3333 32H33.6666C32.9306 32 32.3333 31.4027 32.3333 30.6667V28.6667H35.3333C35.3333 27.2 36.5333 26 37.9999 26C39.4666 26 40.6666 27.2 40.6666 28.6667H43.6666Z" fill="#D5AF36"/>
<path d="M56.7612 48.8587L55.3332 52L53.9052 48.8587C53.7478 48.512 53.6665 48.136 53.6665 47.7547V35.6667C53.6665 34.7467 54.4132 34 55.3332 34C56.2532 34 56.9998 34.7467 56.9998 35.6667V47.756C56.9998 48.136 56.9185 48.512 56.7612 48.8587Z" fill="#D5AF36"/>
<path d="M30 53.3333V32.6667C30 31.2 31.2 30 32.6667 30H29.6667C28.2 30 27 31.2 27 32.6667V53.3333C27 54.8 28.2 56 29.6667 56H32.6667C31.2 56 30 54.8 30 53.3333Z" fill="#D5DBE1"/>
<path d="M34 45C34 41.6507 36.356 38.8573 39.5 38.1693C39.016 38.064 38.516 38 38 38C34.1347 38 31 41.1333 31 45C31 48.8653 34.1347 52 38 52C38.516 52 39.016 51.936 39.5 51.8293C36.356 51.1427 34 48.3493 34 45Z" fill="#D5DBE1"/>
<path d="M34 45C34 42.6053 35.2093 40.4973 37.0453 39.2427C36.8627 38.8627 36.6187 38.5133 36.3067 38.2253C33.2533 38.9587 31 41.7187 31 44.9987C31 45.892 31.1733 46.7453 31.48 47.532H32C32.52 47.532 32.9733 47.332 33.3067 46.9987C33.64 46.6653 33.8533 46.212 33.8533 45.692C33.86 45.4493 33.916 45.2187 34 45.0013C34 45.0013 34 45.0013 34 45Z" fill="#2B3367"/>
<path d="M42.8532 46.3733C43.1892 45.9573 43.6305 45.6479 44.1118 45.4506C43.8918 45.4839 43.6665 45.4853 43.4398 45.4266L42.9998 45.3066C42.6398 45.2133 42.2398 45.1866 41.8665 45.24C41.0932 45.3333 40.3598 45.7466 39.8532 46.3733C38.7998 47.7466 38.9332 49.7066 40.1865 50.8933L40.7465 51.4399C41.4505 51.1373 42.0865 50.7133 42.6505 50.2106C41.9345 49.0413 41.9812 47.5093 42.8532 46.3733Z" fill="#2B3367"/>
<path d="M39.4999 26.4667C39.0719 26.1733 38.5559 26 37.9999 26C36.5333 26 35.3333 27.2 35.3333 28.6667H38.3333C38.3333 27.756 38.7973 26.948 39.4999 26.4667Z" fill="#2B3367"/>
<path d="M35.3333 30.6666V28.6666H32.3333V30.6666C32.3333 31.4026 32.9306 32 33.6666 32H36.6666C35.9306 32 35.3333 31.4026 35.3333 30.6666Z" fill="#2B3367"/>
<path d="M56.6667 47.756V35.6667C56.6667 35.4133 56.732 35.18 56.8334 34.9653C56.5667 34.3987 56.0001 34 55.3334 34C54.4134 34 53.6667 34.7467 53.6667 35.6667V47.756C53.6667 48.1373 53.7481 48.5133 53.9054 48.86L55.3334 52L56.7614 48.8587C56.7934 48.788 56.808 48.7133 56.8334 48.64C56.732 48.356 56.6667 48.0587 56.6667 47.756Z" fill="#2B3367"/>
<path d="M46.3333 57H29.6667C27.644 57 26 55.356 26 53.3333V32.6667C26 30.644 27.644 29 29.6667 29H32.3333V31H29.6667C28.748 31 28 31.748 28 32.6667V53.3333C28 54.252 28.748 55 29.6667 55H46.3333C47.252 55 48 54.252 48 53.3333V32.6667C48 31.748 47.252 31 46.3333 31H43.6667V29H46.3333C48.356 29 50 30.644 50 32.6667V53.3333C50 55.356 48.356 57 46.3333 57Z" fill="black"/>
<path d="M42.3333 33H33.6666C32.3799 33 31.3333 31.9533 31.3333 30.6667V28.6667C31.3333 28.1147 31.7813 27.6667 32.3333 27.6667H34.4719C34.9079 26.1293 36.3253 25 37.9999 25C39.6746 25 41.0919 26.1293 41.5279 27.6667H43.6666C44.2186 27.6667 44.6666 28.1147 44.6666 28.6667V30.6667C44.6666 31.9533 43.6199 33 42.3333 33ZM33.3333 29.6667V30.6667C33.3333 30.8507 33.4826 31 33.6666 31H42.3333C42.5173 31 42.6666 30.8507 42.6666 30.6667V29.6667H40.6666C40.1146 29.6667 39.6666 29.2187 39.6666 28.6667C39.6666 27.748 38.9186 27 37.9999 27C37.0813 27 36.3333 27.748 36.3333 28.6667C36.3333 29.2187 35.8853 29.6667 35.3333 29.6667H33.3333Z" fill="black"/>
<path d="M55.3334 53C54.9414 53 54.5854 52.7707 54.4227 52.4147L52.9947 49.2747C52.7774 48.7947 52.6667 48.2827 52.6667 47.7547V35.6667C52.6667 34.196 53.8627 33 55.3334 33C56.8041 33 58.0001 34.196 58.0001 35.6667V47.7547C58.0001 48.2827 57.8894 48.7933 57.6707 49.2733L56.2427 52.4133C56.0814 52.7707 55.7254 53 55.3334 53ZM55.3334 35C54.9654 35 54.6667 35.3 54.6667 35.6667V47.7547C54.6667 47.996 54.7174 48.2267 54.8161 48.4453L55.3334 49.584L55.8507 48.4453C55.9494 48.228 56.0001 47.996 56.0001 47.7547V35.6667C56.0001 35.3 55.7014 35 55.3334 35Z" fill="black"/>
<path d="M38 53C33.588 53 30 49.412 30 45C30 40.588 33.588 37 38 37C42.412 37 46 40.588 46 45C46 49.412 42.412 53 38 53ZM38 39C34.692 39 32 41.692 32 45C32 48.308 34.692 51 38 51C41.308 51 44 48.308 44 45C44 41.692 41.308 39 38 39Z" fill="black"/>
<path d="M32 48.5333H31.48V46.5333H32C32.5346 46.5333 32.8533 46.1066 32.8533 45.6919C32.8946 44.2733 33.864 43.1093 35.2133 42.8333C35.784 42.7066 36.168 42.3199 36.3373 41.6906C36.5907 40.7519 36.28 39.548 35.6293 38.948L36.9853 37.476C38.1733 38.5706 38.7133 40.5613 38.2693 42.2106C37.9067 43.5586 36.944 44.4986 35.6307 44.7893C35.1667 44.8839 34.868 45.2493 34.8533 45.7213C34.8533 47.2586 33.5733 48.5333 32 48.5333Z" fill="black"/>
<path d="M40.048 52.156C38.4186 50.5653 37.812 48.6827 38.3853 46.9893C38.8853 45.5107 40.2053 44.4333 41.7467 44.2467C42.504 44.1373 43.084 44.2947 43.5067 44.4067C44.0067 44.5427 44.0467 44.552 44.3693 44.2893L45.6307 45.8413C44.516 46.7467 43.6333 46.5093 42.988 46.3387C42.6493 46.248 42.38 46.1787 42.008 46.228C41.2173 46.324 40.532 46.8867 40.28 47.6293C39.9586 48.5773 40.3733 49.676 41.4453 50.7227L40.048 52.156Z" fill="black"/>
</svg>
