<svg width="82" height="82" viewBox="0 0 82 82" fill="none" xmlns="http://www.w3.org/2000/svg">
<circle cx="41" cy="41" r="41" fill="#F4F5F7"/>
<path d="M27.167 51.623C27.167 44.706 23.584 39.956 23.584 36.623C23.584 33.29 25.5 26.29 40.833 26.29C56.166 26.29 58.416 35.707 58.416 39.373C58.417 56.54 27.167 63.873 27.167 51.623Z" fill="#EFEFEF"/>
<path d="M55.0566 27.3236L56.4709 25.9094L57.178 26.6165L55.7637 28.0307L55.0566 27.3236Z" fill="#A4AFC1"/>
<path d="M50.8186 26.6198L51.5257 25.9126L52.9399 27.3269L52.2328 28.034L50.8186 26.6198Z" fill="#A4AFC1"/>
<path d="M54.8828 30.6866L55.5899 29.9795L57.0041 31.3938L56.297 32.1009L54.8828 30.6866Z" fill="#A4AFC1"/>
<path d="M51.25 47.25H30.75C30.198 47.25 29.75 46.802 29.75 46.25V31.75C29.75 31.198 30.198 30.75 30.75 30.75H51.25C51.802 30.75 52.25 31.198 52.25 31.75V46.25C52.25 46.802 51.802 47.25 51.25 47.25Z" fill="#F3F3F1"/>
<path d="M41 44.25C43.8995 44.25 46.25 41.8995 46.25 39C46.25 36.1005 43.8995 33.75 41 33.75C38.1005 33.75 35.75 36.1005 35.75 39C35.75 41.8995 38.1005 44.25 41 44.25Z" fill="#F3F3F1"/>
<path d="M35.75 38.9999C35.75 39.6699 35.88 40.3099 36.11 40.8999H36.5C36.89 40.8999 37.23 40.7499 37.48 40.4999C37.73 40.2499 37.89 39.9099 37.89 39.5199C37.9 39.1799 38.02 38.8599 38.22 38.6099C38.44 38.3599 38.72 38.1799 39.06 38.1099C39.92 37.9199 40.54 37.1599 40.54 36.2799V35.7799C40.54 35.0599 40.24 34.3899 39.73 33.9199C37.44 34.4699 35.75 36.5399 35.75 38.9999Z" fill="#FFCC4D"/>
<path d="M45.08 39.32L44.75 39.23C44.48 39.16 44.18 39.14 43.9 39.18C43.32 39.25 42.77 39.5601 42.39 40.0301C41.6 41.0601 41.7 42.5301 42.64 43.4201L43.06 43.8301C44.92 43.0301 46.23 41.2001 46.25 39.05C45.93 39.31 45.5 39.43 45.08 39.32Z" fill="#FFCC4D"/>
<path d="M32 46.25V31.75C32 31.198 32.448 30.75 33 30.75H30.75C30.198 30.75 29.75 31.198 29.75 31.75V46.25C29.75 46.802 30.198 47.25 30.75 47.25H33C32.448 47.25 32 46.802 32 46.25Z" fill="#D5DBE1"/>
<path d="M38 39C38 36.488 39.767 34.393 42.125 33.877C41.762 33.798 41.387 33.75 41 33.75C38.101 33.75 35.75 36.1 35.75 39C35.75 41.899 38.101 44.25 41 44.25C41.387 44.25 41.762 44.202 42.125 44.122C39.767 43.607 38 41.512 38 39Z" fill="#D5DBE1"/>
<path d="M38 39.0001C38 37.2041 38.907 35.6231 40.284 34.6821C40.147 34.3971 39.964 34.1351 39.73 33.9191C37.44 34.4691 35.75 36.5391 35.75 38.9991C35.75 39.6691 35.88 40.3091 36.11 40.8991H36.5C36.89 40.8991 37.23 40.7491 37.48 40.4991C37.73 40.2491 37.89 39.9091 37.89 39.5191C37.895 39.3371 37.937 39.1641 38 39.0011C38 39.0011 38 39.0011 38 39.0001Z" fill="#D5AF36"/>
<path d="M44.64 40.0301C44.892 39.7181 45.223 39.4861 45.584 39.3381C45.419 39.3631 45.25 39.3641 45.08 39.3201L44.75 39.2301C44.48 39.1601 44.18 39.1401 43.9 39.1801C43.32 39.2501 42.77 39.5601 42.39 40.0301C41.6 41.0601 41.7 42.53 42.64 43.42L43.06 43.83C43.588 43.603 44.065 43.285 44.488 42.908C43.951 42.0311 43.986 40.8821 44.64 40.0301Z" fill="#D5AF36"/>
<path d="M51.25 48H30.75C29.785 48 29 47.215 29 46.25V31.75C29 30.785 29.785 30 30.75 30H51.25C52.215 30 53 30.785 53 31.75V46.25C53 47.215 52.215 48 51.25 48ZM30.75 31.5C30.612 31.5 30.5 31.612 30.5 31.75V46.25C30.5 46.388 30.612 46.5 30.75 46.5H51.25C51.388 46.5 51.5 46.388 51.5 46.25V31.75C51.5 31.612 51.388 31.5 51.25 31.5H30.75Z" fill="black"/>
<path d="M36.5 47.25H38V53.25H36.5V47.25Z" fill="black"/>
<path d="M44 47.25H45.5V53.25H44V47.25Z" fill="black"/>
<path d="M25 52.5H57V54H25V52.5Z" fill="black"/>
<path d="M41 45C37.691 45 35 42.309 35 39C35 35.691 37.691 33 41 33C44.309 33 47 35.691 47 39C47 42.309 44.309 45 41 45ZM41 34.5C38.519 34.5 36.5 36.519 36.5 39C36.5 41.481 38.519 43.5 41 43.5C43.481 43.5 45.5 41.481 45.5 39C45.5 36.519 43.481 34.5 41 34.5Z" fill="black"/>
<path d="M36.2879 41.6499C36.2589 41.6499 36.2309 41.6499 36.2029 41.6499L36.1099 40.1499C36.7019 40.1529 36.7779 40.1409 36.9499 39.9689C37.1079 39.8109 37.1159 39.7299 37.1419 39.4599C37.1739 39.1399 37.2219 38.6569 37.6349 38.1409C37.9959 37.7289 38.4289 37.4729 38.9099 37.3739C39.3379 37.2799 39.6249 36.9899 39.7529 36.5179C39.9429 35.8139 39.7099 34.9109 39.2219 34.4609L40.2389 33.3569C41.1299 34.1779 41.5348 35.6709 41.2019 36.9079C40.9299 37.9189 40.2079 38.6239 39.2229 38.8419C39.0489 38.8769 38.9089 38.9629 38.7849 39.1049C38.6719 39.2479 38.6609 39.3599 38.6369 39.6079C38.6019 39.9599 38.5499 40.4929 38.0119 41.0299C37.4179 41.6219 36.8219 41.6499 36.2879 41.6499Z" fill="black"/>
<path d="M42.536 44.3671C41.314 43.1741 40.859 41.7621 41.289 40.4921C41.664 39.3831 42.654 38.5751 43.81 38.4351C44.374 38.3541 44.81 38.4681 45.128 38.5511C45.503 38.6491 45.542 38.6591 45.777 38.4671L46.723 39.6311C45.897 40.3021 45.233 40.1281 44.748 40.0021C44.49 39.9341 44.285 39.8831 44.005 39.9211C43.412 39.9931 42.898 40.4151 42.709 40.9721C42.468 41.6831 42.779 42.5071 43.583 43.2921L42.536 44.3671Z" fill="black"/>
</svg>
