<svg width="82" height="82" viewBox="0 0 82 82" fill="none" xmlns="http://www.w3.org/2000/svg">
<circle cx="41" cy="41" r="41" fill="#F4F5F7"/>
<path d="M54.833 31.377C54.833 38.294 58.416 43.044 58.416 46.377C58.416 49.71 56.5 56.71 41.167 56.71C25.834 56.71 23.583 47.293 23.583 43.627C23.583 26.46 54.833 19.127 54.833 31.377Z" fill="#EFEFEF"/>
<path d="M28.9714 26.3208L30.3856 24.9066L31.0928 25.6137L29.6785 27.0279L28.9714 26.3208Z" fill="#A4AFC1"/>
<path d="M24.9055 30.3862L26.3197 28.972L27.0268 29.6791L25.6126 31.0933L24.9055 30.3862Z" fill="#A4AFC1"/>
<path d="M25.083 25.6124L25.7901 24.9053L27.2043 26.3195L26.4972 27.0266L25.083 25.6124Z" fill="#A4AFC1"/>
<path d="M41 47.25C44.4518 47.25 47.25 44.4518 47.25 41C47.25 37.5482 44.4518 34.75 41 34.75C37.5482 34.75 34.75 37.5482 34.75 41C34.75 44.4518 37.5482 47.25 41 47.25Z" fill="#FFCC4D"/>
<path d="M43.25 44V43.25C43.25 42.422 42.578 41.75 41.75 41.75H40.25C39.422 41.75 38.75 42.422 38.75 43.25V44H43.25Z" fill="#F3F3F1"/>
<path d="M31.5 52.25C32.4665 52.25 33.25 51.4665 33.25 50.5C33.25 49.5335 32.4665 48.75 31.5 48.75C30.5335 48.75 29.75 49.5335 29.75 50.5C29.75 51.4665 30.5335 52.25 31.5 52.25Z" fill="#F3F3F1"/>
<path d="M31.5 33.25C32.4665 33.25 33.25 32.4665 33.25 31.5C33.25 30.5335 32.4665 29.75 31.5 29.75C30.5335 29.75 29.75 30.5335 29.75 31.5C29.75 32.4665 30.5335 33.25 31.5 33.25Z" fill="#F3F3F1"/>
<path d="M50.5 33.25C51.4665 33.25 52.25 32.4665 52.25 31.5C52.25 30.5335 51.4665 29.75 50.5 29.75C49.5335 29.75 48.75 30.5335 48.75 31.5C48.75 32.4665 49.5335 33.25 50.5 33.25Z" fill="#F3F3F1"/>
<path d="M50.5 52.25C51.4665 52.25 52.25 51.4665 52.25 50.5C52.25 49.5335 51.4665 48.75 50.5 48.75C49.5335 48.75 48.75 49.5335 48.75 50.5C48.75 51.4665 49.5335 52.25 50.5 52.25Z" fill="#F3F3F1"/>
<path d="M42.125 41.803C42.004 41.772 41.88 41.75 41.75 41.75H40.25C39.422 41.75 38.75 42.422 38.75 43.25V44H41V43.25C41 42.552 41.479 41.97 42.125 41.803Z" fill="#D5DBE1"/>
<path d="M32 50.5C32 49.964 32.246 49.491 32.625 49.17C32.32 48.912 31.931 48.75 31.5 48.75C30.534 48.75 29.75 49.534 29.75 50.5C29.75 51.466 30.534 52.25 31.5 52.25C31.931 52.25 32.32 52.088 32.625 51.83C32.246 51.509 32 51.036 32 50.5Z" fill="#D5DBE1"/>
<path d="M32 31.5C32 30.964 32.246 30.491 32.625 30.17C32.32 29.912 31.931 29.75 31.5 29.75C30.534 29.75 29.75 30.534 29.75 31.5C29.75 32.466 30.534 33.25 31.5 33.25C31.931 33.25 32.32 33.088 32.625 32.83C32.246 32.509 32 32.036 32 31.5Z" fill="#D5DBE1"/>
<path d="M51 31.5C51 30.964 51.246 30.491 51.625 30.17C51.32 29.912 50.931 29.75 50.5 29.75C49.534 29.75 48.75 30.534 48.75 31.5C48.75 32.466 49.534 33.25 50.5 33.25C50.931 33.25 51.32 33.088 51.625 32.83C51.246 32.509 51 32.036 51 31.5Z" fill="#D5DBE1"/>
<path d="M51 50.5C51 49.964 51.246 49.491 51.625 49.17C51.32 48.912 50.931 48.75 50.5 48.75C49.534 48.75 48.75 49.534 48.75 50.5C48.75 51.466 49.534 52.25 50.5 52.25C50.931 52.25 51.32 52.088 51.625 51.83C51.246 51.509 51 51.036 51 50.5Z" fill="#D5DBE1"/>
<path d="M37 41C37 37.933 39.211 35.387 42.125 34.856C41.76 34.79 41.385 34.75 41 34.75C37.548 34.75 34.75 37.548 34.75 41C34.75 44.452 37.548 47.25 41 47.25C41.385 47.25 41.76 47.21 42.125 47.144C39.211 46.613 37 44.067 37 41Z" fill="#D5AF36"/>
<path d="M41 40C41.8284 40 42.5 39.3284 42.5 38.5C42.5 37.6716 41.8284 37 41 37C40.1716 37 39.5 37.6716 39.5 38.5C39.5 39.3284 40.1716 40 41 40Z" fill="black"/>
<path d="M44 44H42.5V43.25C42.5 42.836 42.163 42.5 41.75 42.5H40.25C39.837 42.5 39.5 42.836 39.5 43.25V44H38V43.25C38 42.009 39.01 41 40.25 41H41.75C42.99 41 44 42.009 44 43.25V44Z" fill="black"/>
<path d="M41 48C37.141 48 34 44.86 34 41C34 37.14 37.141 34 41 34C44.859 34 48 37.14 48 41C48 44.86 44.859 48 41 48ZM41 35.5C37.968 35.5 35.5 37.967 35.5 41C35.5 44.033 37.968 46.5 41 46.5C44.032 46.5 46.5 44.033 46.5 41C46.5 37.967 44.032 35.5 41 35.5Z" fill="black"/>
<path d="M45.0647 46.1323L46.1254 45.0717L49.6156 48.5619L48.555 49.6226L45.0647 46.1323Z" fill="black"/>
<path d="M32.3772 33.4414L33.4379 32.3807L36.9281 35.871L35.8675 36.9317L32.3772 33.4414Z" fill="black"/>
<path d="M45.0659 35.8708L48.5562 32.3806L49.6169 33.4412L46.1266 36.9315L45.0659 35.8708Z" fill="black"/>
<path d="M32.376 48.5585L35.8663 45.0682L36.9269 46.1288L33.4366 49.6191L32.376 48.5585Z" fill="black"/>
<path d="M31.5 53C30.121 53 29 51.878 29 50.5C29 49.122 30.121 48 31.5 48C32.879 48 34 49.122 34 50.5C34 51.878 32.879 53 31.5 53ZM31.5 49.5C30.948 49.5 30.5 49.949 30.5 50.5C30.5 51.051 30.948 51.5 31.5 51.5C32.052 51.5 32.5 51.051 32.5 50.5C32.5 49.949 32.052 49.5 31.5 49.5Z" fill="black"/>
<path d="M31.5 34C30.121 34 29 32.878 29 31.5C29 30.122 30.121 29 31.5 29C32.879 29 34 30.122 34 31.5C34 32.878 32.879 34 31.5 34ZM31.5 30.5C30.948 30.5 30.5 30.949 30.5 31.5C30.5 32.051 30.948 32.5 31.5 32.5C32.052 32.5 32.5 32.051 32.5 31.5C32.5 30.949 32.052 30.5 31.5 30.5Z" fill="black"/>
<path d="M50.5 34C49.121 34 48 32.878 48 31.5C48 30.122 49.121 29 50.5 29C51.879 29 53 30.122 53 31.5C53 32.878 51.879 34 50.5 34ZM50.5 30.5C49.948 30.5 49.5 30.949 49.5 31.5C49.5 32.051 49.948 32.5 50.5 32.5C51.052 32.5 51.5 32.051 51.5 31.5C51.5 30.949 51.052 30.5 50.5 30.5Z" fill="black"/>
<path d="M50.5 53C49.121 53 48 51.878 48 50.5C48 49.122 49.121 48 50.5 48C51.879 48 53 49.122 53 50.5C53 51.878 51.879 53 50.5 53ZM50.5 49.5C49.948 49.5 49.5 49.949 49.5 50.5C49.5 51.051 49.948 51.5 50.5 51.5C51.052 51.5 51.5 51.051 51.5 50.5C51.5 49.949 51.052 49.5 50.5 49.5Z" fill="black"/>
</svg>
