<svg width="82" height="82" viewBox="0 0 82 82" fill="none" xmlns="http://www.w3.org/2000/svg">
<circle cx="41" cy="41" r="41" fill="#F4F5F7"/>
<path d="M50.623 54.833C43.706 54.833 38.956 58.416 35.623 58.416C32.29 58.416 25.29 56.5 25.29 41.167C25.29 25.834 34.707 23.583 38.373 23.583C55.54 23.583 62.873 54.833 50.623 54.833Z" fill="#EFEFEF"/>
<path d="M38.9705 26.3218L40.3847 24.9076L41.0918 25.6147L39.6776 27.0289L38.9705 26.3218Z" fill="#A4AFC1"/>
<path d="M34.9045 30.3871L36.3188 28.9729L37.0259 29.68L35.6116 31.0942L34.9045 30.3871Z" fill="#A4AFC1"/>
<path d="M35.082 25.6144L35.7891 24.9073L37.2034 26.3215L36.4962 27.0286L35.082 25.6144Z" fill="#A4AFC1"/>
<path d="M46 41.25C48.8995 41.25 51.25 38.8995 51.25 36C51.25 33.1005 48.8995 30.75 46 30.75C43.1005 30.75 40.75 33.1005 40.75 36C40.75 38.8995 43.1005 41.25 46 41.25Z" fill="#F3F3F1"/>
<path d="M49.75 46.0001C48.452 46.0001 46.945 46.6281 45.5 47.0711V46.6401C45.5 45.6901 44.83 44.8701 43.9 44.6801L34.27 42.7101L32.78 48.1301C34.69 49.0301 39.61 51.2501 42 51.2501C45 51.2501 52.25 47.2501 52.25 47.2501C52.25 47.2501 51.75 46.0001 49.75 46.0001Z" fill="#F3F3F1"/>
<path d="M40.75 35.9999C40.75 36.6699 40.88 37.3099 41.11 37.8999H41.5C41.89 37.8999 42.23 37.7499 42.48 37.4999C42.73 37.2499 42.89 36.9099 42.89 36.5199C42.9 36.1799 43.02 35.8599 43.22 35.6099C43.44 35.3599 43.72 35.1799 44.06 35.1099C44.92 34.9199 45.54 34.1599 45.54 33.2799V32.7799C45.54 32.0599 45.25 31.3899 44.74 30.9099C42.45 31.4699 40.75 33.5399 40.75 35.9999Z" fill="#FFCC4D"/>
<path d="M50.08 36.32L49.75 36.23C49.48 36.16 49.18 36.14 48.9 36.18C48.32 36.25 47.77 36.56 47.39 37.03C46.6 38.0601 46.7 39.5301 47.64 40.4201L48.06 40.8301C49.92 40.0301 51.23 38.2001 51.25 36.05C50.93 36.31 50.49 36.42 50.08 36.32Z" fill="#FFCC4D"/>
<path d="M29.75 40.75V49.25H32.5L34.5 41.864C34.5 41.864 33.042 40.75 29.75 40.75Z" fill="#FFCC4D"/>
<path d="M43 36C43 33.488 44.767 31.393 47.125 30.877C46.762 30.798 46.387 30.75 46 30.75C43.101 30.75 40.75 33.1 40.75 36C40.75 38.899 43.101 41.25 46 41.25C46.387 41.25 46.762 41.202 47.125 41.122C44.767 40.607 43 38.512 43 36Z" fill="#D5DBE1"/>
<path d="M35.03 48.1301L36.4 43.1461L34.27 42.7101L32.78 48.1301C34.69 49.0301 39.61 51.2501 42 51.2501C42.314 51.2501 42.683 51.1981 43.077 51.1191C40.506 50.6361 36.666 48.9011 35.03 48.1301Z" fill="#D5DBE1"/>
<path d="M43 35.9999C43 34.2049 43.911 32.6249 45.29 31.6809C45.155 31.3939 44.974 31.1309 44.74 30.9099C42.45 31.4699 40.75 33.5399 40.75 35.9999C40.75 36.6699 40.88 37.3099 41.11 37.8999H41.5C41.89 37.8999 42.23 37.7499 42.48 37.4999C42.73 37.2499 42.89 36.9099 42.89 36.5199C42.895 36.3379 42.937 36.1649 43 36.0019C43 36.0009 43 36.0009 43 35.9999Z" fill="#D5AF36"/>
<path d="M49.64 37.0301C49.895 36.7141 50.231 36.4791 50.597 36.3321C50.426 36.3591 50.251 36.3621 50.08 36.3201L49.75 36.2301C49.48 36.1601 49.18 36.1401 48.9 36.1801C48.32 36.2501 47.77 36.5601 47.39 37.0301C46.6 38.0601 46.7 39.53 47.64 40.42L48.06 40.83C48.588 40.603 49.065 40.285 49.488 39.9081C48.951 39.0311 48.986 37.8821 49.64 37.0301Z" fill="#D5AF36"/>
<path d="M29.75 40.75V49.25H32V40.95C31.374 40.833 30.633 40.75 29.75 40.75Z" fill="#D5AF36"/>
<path d="M46 42C42.691 42 40 39.309 40 36C40 32.691 42.691 30 46 30C49.309 30 52 32.691 52 36C52 39.309 49.309 42 46 42ZM46 31.5C43.519 31.5 41.5 33.519 41.5 36C41.5 38.481 43.519 40.5 46 40.5C48.481 40.5 50.5 38.481 50.5 36C50.5 33.519 48.481 31.5 46 31.5Z" fill="black"/>
<path d="M41.5001 38.6499H41.1101V37.1499H41.5001C41.9001 37.1499 42.1401 36.8299 42.1401 36.5189C42.1711 35.4549 42.8991 34.5819 43.9101 34.3749C44.3271 34.2819 44.6091 33.9969 44.7381 33.5279C44.9331 32.8189 44.7091 31.9089 44.2271 31.4549L45.2541 30.3629C46.1341 31.1899 46.5251 32.6889 46.1841 33.9259C45.9081 34.9279 45.1931 35.6259 44.2221 35.8409C43.8741 35.9119 43.6501 36.1859 43.6401 36.5399C43.6401 37.6939 42.6801 38.6499 41.5001 38.6499Z" fill="black"/>
<path d="M47.5352 41.3661C46.3132 40.1741 45.8592 38.7621 46.2892 37.4921C46.6652 36.3831 47.6542 35.5751 48.8102 35.4351C49.3652 35.3521 49.7992 35.4681 50.1172 35.5511C50.4942 35.6511 50.5352 35.6611 50.7772 35.4671L51.7222 36.6311C50.8942 37.3051 50.2252 37.1301 49.7372 37.0021C49.4822 36.9361 49.2812 36.8831 49.0062 36.9211C48.4132 36.9931 47.8992 37.4151 47.7102 37.9731C47.4692 38.6841 47.7792 39.5071 48.5842 40.2931L47.5352 41.3661Z" fill="black"/>
<path d="M32.5 50H29.75C29.336 50 29 49.664 29 49.25V40.75C29 40.336 29.336 40 29.75 40C33.256 40 34.888 41.217 34.955 41.269C35.197 41.454 35.304 41.767 35.224 42.061L33.224 49.447C33.136 49.773 32.839 50 32.5 50ZM30.5 48.5H31.926L33.624 42.229C33.101 41.982 32.079 41.614 30.5 41.522V48.5Z" fill="black"/>
<path d="M41.9999 52C39.5909 52 34.9889 50 32.4609 48.809L33.0999 47.452C37.2099 49.39 40.4539 50.501 41.9999 50.501C44.0279 50.501 48.6319 48.311 51.0449 47.047C50.7669 46.888 50.3529 46.751 49.7499 46.751C48.8719 46.751 47.7859 47.112 46.7369 47.463C45.5739 47.851 44.3719 48.251 43.2499 48.251C41.1429 48.251 38.3609 47.248 38.2439 47.206L38.7559 45.796C38.7819 45.806 41.4079 46.751 43.2499 46.751C44.1279 46.751 45.2139 46.39 46.2629 46.039C47.4259 45.651 48.6279 45.251 49.7499 45.251C52.2289 45.251 52.9179 46.902 52.9459 46.973C53.0869 47.325 52.9429 47.725 52.6119 47.908C52.3099 48.074 45.1569 52 41.9999 52Z" fill="black"/>
<path d="M46.2499 47.09H44.7499V46.64C44.7499 46.049 44.3289 45.534 43.7499 45.414L34.1189 43.444L34.4199 41.975L44.0509 43.945C45.3249 44.206 46.2499 45.339 46.2499 46.639V47.09Z" fill="black"/>
</svg>
