<svg width="82" height="82" viewBox="0 0 82 82" fill="none" xmlns="http://www.w3.org/2000/svg">
<circle cx="41" cy="41" r="41" fill="#F4F5F7"/>
<path d="M54.833 31.377C54.833 38.294 58.416 43.044 58.416 46.377C58.416 49.71 56.5 56.71 41.167 56.71C25.834 56.71 23.583 47.293 23.583 43.627C23.583 26.46 54.833 19.127 54.833 31.377Z" fill="#EFEFEF"/>
<path d="M53.5 30C52.673 30 52 29.327 52 28.5C52 27.673 52.673 27 53.5 27C54.327 27 55 27.673 55 28.5C55 29.327 54.327 30 53.5 30ZM53.5 28C53.224 28 53 28.224 53 28.5C53 28.776 53.224 29 53.5 29C53.776 29 54 28.776 54 28.5C54 28.224 53.776 28 53.5 28Z" fill="#A4AFC1"/>
<path d="M50.25 50.25H31.75C30.645 50.25 29.75 49.355 29.75 48.25V36.75C29.75 35.645 30.645 34.75 31.75 34.75H50.25C51.355 34.75 52.25 35.645 52.25 36.75V48.25C52.25 49.355 51.355 50.25 50.25 50.25Z" fill="#F3F3F1"/>
<path d="M42.25 43.25H39.75C39.198 43.25 38.75 42.802 38.75 42.25V39.75C38.75 39.198 39.198 38.75 39.75 38.75H42.25C42.802 38.75 43.25 39.198 43.25 39.75V42.25C43.25 42.802 42.802 43.25 42.25 43.25Z" fill="#FFCC4D"/>
<path d="M32 48.25V36.75C32 35.645 32.895 34.75 34 34.75H31.75C30.645 34.75 29.75 35.645 29.75 36.75V48.25C29.75 49.355 30.645 50.25 31.75 50.25H34C32.895 50.25 32 49.355 32 48.25Z" fill="#D5DBE1"/>
<path d="M41 42.25V39.75C41 39.198 41.448 38.75 42 38.75H39.75C39.198 38.75 38.75 39.198 38.75 39.75V42.25C38.75 42.802 39.198 43.25 39.75 43.25H42C41.448 43.25 41 42.802 41 42.25Z" fill="#D5AF36"/>
<path d="M50.25 51H31.75C30.233 51 29 49.767 29 48.25V36.75C29 35.233 30.233 34 31.75 34H50.25C51.767 34 53 35.233 53 36.75V48.25C53 49.767 51.767 51 50.25 51ZM31.75 35.5C31.061 35.5 30.5 36.061 30.5 36.75V48.25C30.5 48.939 31.061 49.5 31.75 49.5H50.25C50.939 49.5 51.5 48.939 51.5 48.25V36.75C51.5 36.061 50.939 35.5 50.25 35.5H31.75Z" fill="black"/>
<path d="M45 34.75H43.5V32.75C43.5 32.612 43.388 32.5 43.25 32.5H38.75C38.612 32.5 38.5 32.612 38.5 32.75V34.75H37V32.75C37 31.785 37.785 31 38.75 31H43.25C44.215 31 45 31.785 45 32.75V34.75Z" fill="black"/>
<path d="M29.75 40H38.75V41.5H29.75V40Z" fill="black"/>
<path d="M43.25 40H52.25V41.5H43.25V40Z" fill="black"/>
<path d="M42.25 44H39.75C38.785 44 38 43.215 38 42.25V39.75C38 38.785 38.785 38 39.75 38H42.25C43.215 38 44 38.785 44 39.75V42.25C44 43.215 43.215 44 42.25 44ZM39.75 39.5C39.612 39.5 39.5 39.612 39.5 39.75V42.25C39.5 42.388 39.612 42.5 39.75 42.5H42.25C42.388 42.5 42.5 42.388 42.5 42.25V39.75C42.5 39.612 42.388 39.5 42.25 39.5H39.75Z" fill="black"/>
<path d="M25 49.5H57V51H25V49.5Z" fill="black"/>
</svg>
