<svg width="82" height="82" viewBox="0 0 82 82" fill="none" xmlns="http://www.w3.org/2000/svg">
<circle cx="41" cy="41" r="41" fill="#F4F5F7"/>
<path d="M24.5142 30.075C24.5142 37.5685 20.6326 42.7143 20.6326 46.325C20.6326 49.9358 22.7082 57.5191 39.319 57.5191C55.9297 57.5191 58.3672 47.3174 58.3672 43.3459C58.3683 24.7483 24.5142 16.8042 24.5142 30.075Z" fill="#EFEFEF"/>
<path d="M36.218 26.7653L37.7501 25.2332L38.5161 25.9992L36.9841 27.5313L36.218 26.7653Z" fill="#A4AFC1"/>
<path d="M31.8132 31.1693L33.3453 29.6372L34.1113 30.4033L32.5793 31.9353L31.8132 31.1693Z" fill="#A4AFC1"/>
<path d="M32.0056 25.9989L32.7716 25.2329L34.3037 26.7649L33.5377 27.531L32.0056 25.9989Z" fill="#A4AFC1"/>
<path d="M30.8334 39.6875C31.5813 39.6875 32.1876 39.0812 32.1876 38.3333C32.1876 37.5854 31.5813 36.9791 30.8334 36.9791C30.0855 36.9791 29.4792 37.5854 29.4792 38.3333C29.4792 39.0812 30.0855 39.6875 30.8334 39.6875Z" fill="#F3F3F1"/>
<path d="M34.0833 45.9167V44.5625C34.0833 43.3655 33.1138 42.3959 31.9167 42.3959H29.4792C28.2821 42.3959 27.3125 43.3655 27.3125 44.5625V45.9167H34.0833Z" fill="#F3F3F1"/>
<path d="M45.8697 33.1875L45.2642 30.1184L47.2326 30.828L48.4762 28.3125L49.7188 30.828L51.6872 30.1184L51.0817 33.1875H45.8697Z" fill="#FDD888"/>
<path d="M45.8697 52.6875L45.2642 49.6184L47.2326 50.328L48.4762 47.8125L49.7188 50.328L51.6872 49.6184L51.0817 52.6875H45.8697Z" fill="#FDD888"/>
<path d="M45.8697 42.9375L45.2642 39.8684L47.2326 40.578L48.4762 38.0625L49.7188 40.578L51.6872 39.8684L51.0817 42.9375H45.8697Z" fill="#FDD888"/>
<path d="M31.9168 38.3333C31.9168 38.1275 31.9698 37.9379 32.0522 37.7635C31.8355 37.303 31.3751 36.9791 30.8334 36.9791C30.0859 36.9791 29.4792 37.5858 29.4792 38.3333C29.4792 39.0808 30.0859 39.6875 30.8334 39.6875C31.3751 39.6875 31.8355 39.3635 32.0522 38.9031C31.9698 38.7287 31.9168 38.5391 31.9168 38.3333Z" fill="#D5DBE1"/>
<path d="M31.9167 42.3959H29.4792C28.2821 42.3959 27.3125 43.3655 27.3125 44.5625V45.9167H29.75V44.5625C29.75 43.3655 30.7196 42.3959 31.9167 42.3959Z" fill="#D5DBE1"/>
<path d="M49.6701 30.828L49.695 30.7793L48.4762 28.3125L47.2326 30.828L45.2642 30.1184L45.8697 33.1875H48.3072L47.7017 30.1184L49.6701 30.828Z" fill="#D5AF36"/>
<path d="M49.6701 50.328L49.695 50.2793L48.4762 47.8125L47.2326 50.328L45.2642 49.6184L45.8697 52.6875H48.3072L47.7017 49.6184L49.6701 50.328Z" fill="#D5AF36"/>
<path d="M49.6701 40.578L49.695 40.5293L48.4762 38.0625L47.2326 40.578L45.2642 39.8684L45.8697 42.9375H48.3072L47.7017 39.8684L49.6701 40.578Z" fill="#D5AF36"/>
<path d="M51.082 34H45.8701C45.4823 34 45.1475 33.726 45.0728 33.3446L44.4672 30.2755C44.4108 29.9885 44.5127 29.6927 44.7348 29.502C44.9579 29.3114 45.2656 29.255 45.5397 29.3536L46.8256 29.8173L47.7475 27.9529C48.0216 27.3982 48.9305 27.3982 49.2046 27.9529L50.1265 29.8173L51.4124 29.3536C51.6854 29.255 51.9952 29.3103 52.2173 29.502C52.4394 29.6927 52.5412 29.9885 52.4849 30.2755L51.8793 33.3446C51.8035 33.726 51.4698 34 51.082 34ZM46.5385 32.375H50.4136L50.6118 31.3697L49.9943 31.5929C49.6087 31.7337 49.1732 31.5593 48.9901 31.1877L48.4755 30.1466L47.9609 31.1877C47.7778 31.5593 47.3445 31.7337 46.9567 31.5929L46.3392 31.3697L46.5385 32.375Z" fill="black"/>
<path d="M51.082 43.75H45.8701C45.4823 43.75 45.1475 43.476 45.0728 43.0946L44.4672 40.0255C44.4108 39.7385 44.5127 39.4427 44.7348 39.252C44.9579 39.0603 45.2656 39.005 45.5397 39.1036L46.8256 39.5673L47.7475 37.7029C48.0216 37.1482 48.9305 37.1482 49.2046 37.7029L50.1265 39.5673L51.4124 39.1036C51.6854 39.005 51.9952 39.0603 52.2173 39.252C52.4394 39.4427 52.5412 39.7385 52.4849 40.0255L51.8793 43.0946C51.8035 43.476 51.4698 43.75 51.082 43.75ZM46.5385 42.125H50.4136L50.6118 41.1197L49.9943 41.3429C49.6087 41.4848 49.1732 41.3104 48.9901 40.9377L48.4755 39.8966L47.9609 40.9377C47.7778 41.3093 47.3445 41.4837 46.9567 41.3429L46.3392 41.1197L46.5385 42.125Z" fill="black"/>
<path d="M30.8334 40.5C29.6385 40.5 28.6667 39.5282 28.6667 38.3333C28.6667 37.1384 29.6385 36.1666 30.8334 36.1666C32.0283 36.1666 33.0001 37.1384 33.0001 38.3333C33.0001 39.5282 32.0283 40.5 30.8334 40.5ZM30.8334 37.7916C30.5344 37.7916 30.2917 38.0343 30.2917 38.3333C30.2917 38.6323 30.5344 38.875 30.8334 38.875C31.1324 38.875 31.3751 38.6323 31.3751 38.3333C31.3751 38.0343 31.1324 37.7916 30.8334 37.7916Z" fill="black"/>
<path d="M35.1667 45.9167H33.5417V44.5625C33.5417 43.8161 32.9339 43.2084 32.1875 43.2084H29.4792C28.7328 43.2084 28.125 43.8161 28.125 44.5625V45.9167H26.5V44.5625C26.5 42.9191 27.8358 41.5834 29.4792 41.5834H32.1875C33.8309 41.5834 35.1667 42.9191 35.1667 44.5625V45.9167Z" fill="black"/>
<path d="M42.2083 51.3334H39.2291C38.1837 51.3334 37.3333 50.483 37.3333 49.4375V32.7358C37.3333 31.6904 38.1837 30.84 39.2291 30.84H42.2083V32.465H39.2291C39.0796 32.465 38.9583 32.5863 38.9583 32.7358V49.4375C38.9583 49.587 39.0796 49.7084 39.2291 49.7084H42.2083V51.3334Z" fill="black"/>
<path d="M37.3333 40.2291H42.2083V41.8541H37.3333V40.2291Z" fill="black"/>
<path d="M51.082 53.4999H45.8701C45.4823 53.4999 45.1475 53.2258 45.0728 52.8445L44.4672 49.7754C44.4108 49.4883 44.5127 49.1926 44.7348 49.0019C44.9579 48.8102 45.2656 48.7549 45.5397 48.8535L46.8256 49.3172L47.7475 47.4527C48.0216 46.8981 48.9305 46.8981 49.2046 47.4527L50.1265 49.3172L51.4124 48.8535C51.6854 48.7549 51.9952 48.8102 52.2173 49.0019C52.4394 49.1926 52.5412 49.4883 52.4849 49.7754L51.8793 52.8445C51.8035 53.2258 51.4698 53.4999 51.082 53.4999ZM46.5385 51.8749H50.4136L50.6118 50.8696L49.9943 51.0927C49.6087 51.2325 49.1732 51.0602 48.9901 50.6876L48.4755 49.6465L47.9609 50.6876C47.7778 51.0592 47.3445 51.2325 46.9567 51.0927L46.3392 50.8696L46.5385 51.8749Z" fill="black"/>
</svg>
