<svg width="82" height="82" viewBox="0 0 82 82" fill="none" xmlns="http://www.w3.org/2000/svg">
<circle cx="41" cy="41" r="41" fill="#F4F5F7"/>
<path d="M27.167 31.377C27.167 38.294 23.584 43.044 23.584 46.377C23.584 49.71 25.5 56.71 40.833 56.71C56.166 56.71 58.416 47.293 58.416 43.627C58.417 26.46 27.167 19.127 27.167 31.377Z" fill="#EFEFEF"/>
<path d="M25.083 25.6124L25.7901 24.9053L27.2043 26.3195L26.4972 27.0266L25.083 25.6124Z" fill="#A4AFC1"/>
<path d="M24.9055 30.3862L26.3197 28.972L27.0268 29.6791L25.6126 31.0933L24.9055 30.3862Z" fill="#A4AFC1"/>
<path d="M28.9714 26.3209L30.3856 24.9067L31.0928 25.6138L29.6785 27.028L28.9714 26.3209Z" fill="#A4AFC1"/>
<path d="M34.25 45.25H32.25C31.698 45.25 31.25 44.802 31.25 44.25V36.75C31.25 36.198 31.698 35.75 32.25 35.75H34.25C34.802 35.75 35.25 36.198 35.25 36.75V44.25C35.25 44.802 34.802 45.25 34.25 45.25Z" fill="#F3F3F1"/>
<path d="M50.25 42.25H48.25C47.698 42.25 47.25 41.802 47.25 41.25V33.75C47.25 33.198 47.698 32.75 48.25 32.75H50.25C50.802 32.75 51.25 33.198 51.25 33.75V41.25C51.25 41.802 50.802 42.25 50.25 42.25Z" fill="#F3F3F1"/>
<path d="M42.25 48.25H40.25C39.698 48.25 39.25 47.802 39.25 47.25V39.75C39.25 39.198 39.698 38.75 40.25 38.75H42.25C42.802 38.75 43.25 39.198 43.25 39.75V47.25C43.25 47.802 42.802 48.25 42.25 48.25Z" fill="#D5AF36"/>
<path d="M33.5 44.25V36.75C33.5 36.242 33.884 35.839 34.375 35.775C34.332 35.769 34.294 35.75 34.25 35.75H32.25C31.698 35.75 31.25 36.198 31.25 36.75V44.25C31.25 44.802 31.698 45.25 32.25 45.25H34.25C34.294 45.25 34.332 45.23 34.375 45.225C33.884 45.161 33.5 44.758 33.5 44.25Z" fill="#D5DBE1"/>
<path d="M49.5 41.25V33.75C49.5 33.242 49.884 32.839 50.375 32.775C50.332 32.77 50.294 32.75 50.25 32.75H48.25C47.698 32.75 47.25 33.198 47.25 33.75V41.25C47.25 41.802 47.698 42.25 48.25 42.25H50.25C50.294 42.25 50.332 42.23 50.375 42.225C49.884 42.161 49.5 41.758 49.5 41.25Z" fill="#D5DBE1"/>
<path d="M41.5 47.25V39.75C41.5 39.242 41.884 38.839 42.375 38.775C42.332 38.769 42.294 38.75 42.25 38.75H40.25C39.698 38.75 39.25 39.198 39.25 39.75V47.25C39.25 47.802 39.698 48.25 40.25 48.25H42.25C42.294 48.25 42.332 48.23 42.375 48.225C41.884 48.161 41.5 47.758 41.5 47.25Z" fill="#D5AF36"/>
<path d="M34.25 46H32.25C31.285 46 30.5 45.215 30.5 44.25V36.75C30.5 35.785 31.285 35 32.25 35H34.25C35.215 35 36 35.785 36 36.75V44.25C36 45.215 35.215 46 34.25 46ZM32.25 36.5C32.112 36.5 32 36.612 32 36.75V44.25C32 44.388 32.112 44.5 32.25 44.5H34.25C34.388 44.5 34.5 44.388 34.5 44.25V36.75C34.5 36.612 34.388 36.5 34.25 36.5H32.25Z" fill="black"/>
<path d="M32.5 29H34V36.5H32.5V29Z" fill="black"/>
<path d="M32.5 44.5H34V53H32.5V44.5Z" fill="black"/>
<path d="M42.25 49H40.25C39.285 49 38.5 48.215 38.5 47.25V39.75C38.5 38.785 39.285 38 40.25 38H42.25C43.215 38 44 38.785 44 39.75V47.25C44 48.215 43.215 49 42.25 49ZM40.25 39.5C40.112 39.5 40 39.612 40 39.75V47.25C40 47.388 40.112 47.5 40.25 47.5H42.25C42.388 47.5 42.5 47.388 42.5 47.25V39.75C42.5 39.612 42.388 39.5 42.25 39.5H40.25Z" fill="black"/>
<path d="M40.5 29H42V39.5H40.5V29Z" fill="black"/>
<path d="M40.5 47.5H42V53H40.5V47.5Z" fill="black"/>
<path d="M50.25 43H48.25C47.285 43 46.5 42.215 46.5 41.25V33.75C46.5 32.785 47.285 32 48.25 32H50.25C51.215 32 52 32.785 52 33.75V41.25C52 42.215 51.215 43 50.25 43ZM48.25 33.5C48.112 33.5 48 33.612 48 33.75V41.25C48 41.388 48.112 41.5 48.25 41.5H50.25C50.388 41.5 50.5 41.388 50.5 41.25V33.75C50.5 33.612 50.388 33.5 50.25 33.5H48.25Z" fill="black"/>
<path d="M48.5 29H50V33.5H48.5V29Z" fill="black"/>
<path d="M48.5 41.5H50V53H48.5V41.5Z" fill="black"/>
<path d="M25 51.5H57V53H25V51.5Z" fill="black"/>
</svg>
