<svg width="82" height="82" viewBox="0 0 82 82" fill="none" xmlns="http://www.w3.org/2000/svg">
<circle cx="41" cy="41" r="41" fill="#F4F5F7"/>
<path d="M50.623 27.167C43.706 27.167 38.956 23.584 35.623 23.584C32.29 23.584 25.29 25.5 25.29 40.833C25.29 56.166 34.707 58.416 38.373 58.416C55.54 58.417 62.873 27.167 50.623 27.167Z" fill="#EFEFEF"/>
<path d="M25.5 48C24.673 48 24 47.327 24 46.5C24 45.673 24.673 45 25.5 45C26.327 45 27 45.673 27 46.5C27 47.327 26.327 48 25.5 48ZM25.5 46C25.224 46 25 46.224 25 46.5C25 46.776 25.224 47 25.5 47C25.776 47 26 46.776 26 46.5C26 46.224 25.776 46 25.5 46Z" fill="#A4AFC1"/>
<path d="M50.25 44.25C51.35 44.25 52.25 43.35 52.25 42.25V31.75C52.25 30.65 51.35 29.75 50.25 29.75H31.75C30.65 29.75 29.75 30.65 29.75 31.75V42.25C29.75 43.35 30.65 44.25 31.75 44.25H50.25Z" fill="#F3F3F1"/>
<path d="M41 39.25C42.2426 39.25 43.25 38.2426 43.25 37C43.25 35.7574 42.2426 34.75 41 34.75C39.7574 34.75 38.75 35.7574 38.75 37C38.75 38.2426 39.7574 39.25 41 39.25Z" fill="#FFCC4D"/>
<path d="M32 42.25V31.75C32 30.65 32.9 29.75 34 29.75H31.75C30.65 29.75 29.75 30.65 29.75 31.75V42.25C29.75 43.35 30.65 44.25 31.75 44.25H34C32.9 44.25 32 43.35 32 42.25Z" fill="#D5DBE1"/>
<path d="M41 37C41 36.169 41.455 35.452 42.125 35.062C41.793 34.869 41.412 34.75 41 34.75C39.757 34.75 38.75 35.757 38.75 37C38.75 38.243 39.757 39.25 41 39.25C41.412 39.25 41.793 39.131 42.125 38.938C41.455 38.548 41 37.831 41 37Z" fill="#D5AF36"/>
<path d="M50.25 45H47V43.5H50.25C50.939 43.5 51.5 42.939 51.5 42.25V31.75C51.5 31.061 50.939 30.5 50.25 30.5H31.75C31.061 30.5 30.5 31.061 30.5 31.75V42.25C30.5 42.939 31.061 43.5 31.75 43.5H35V45H31.75C30.233 45 29 43.767 29 42.25V31.75C29 30.233 30.233 29 31.75 29H50.25C51.767 29 53 30.233 53 31.75V42.25C53 43.767 51.767 45 50.25 45Z" fill="black"/>
<path d="M41 40C39.346 40 38 38.654 38 37C38 35.346 39.346 34 41 34C42.654 34 44 35.346 44 37C44 38.654 42.654 40 41 40ZM41 35.5C40.173 35.5 39.5 36.173 39.5 37C39.5 37.827 40.173 38.5 41 38.5C41.827 38.5 42.5 37.827 42.5 37C42.5 36.173 41.827 35.5 41 35.5Z" fill="black"/>
<path d="M32 32H35V33.5H32V32Z" fill="black"/>
<path d="M47 40.5H50V42H47V40.5Z" fill="black"/>
<path d="M40.25 43H41.75V53H40.25V43Z" fill="black"/>
<path d="M41.02 48.276L37.372 46.148C37.142 46.014 37 45.767 37 45.5V40H38.5V45.069L41.776 46.98L41.02 48.276Z" fill="black"/>
<path d="M40.9149 51.256L40.2439 49.914L43.9999 48.037V41H45.4999V48.5C45.4999 48.784 45.3389 49.044 45.0849 49.171L40.9149 51.256Z" fill="black"/>
<path d="M25 51.5H57V53H25V51.5Z" fill="black"/>
</svg>
