<svg width="82" height="82" viewBox="0 0 82 82" fill="none" xmlns="http://www.w3.org/2000/svg">
<circle cx="41" cy="41" r="41" fill="#F4F5F7"/>
<path d="M31.377 27.167C38.294 27.167 43.044 23.584 46.377 23.584C49.71 23.584 56.71 25.5 56.71 40.833C56.71 56.166 47.293 58.416 43.627 58.416C26.46 58.417 19.127 27.167 31.377 27.167Z" fill="#EFEFEF"/>
<path d="M54.5 30C53.673 30 53 29.327 53 28.5C53 27.673 53.673 27 54.5 27C55.327 27 56 27.673 56 28.5C56 29.327 55.327 30 54.5 30ZM54.5 28C54.225 28 54 28.224 54 28.5C54 28.776 54.225 29 54.5 29C54.775 29 55 28.776 55 28.5C55 28.224 54.775 28 54.5 28Z" fill="#A4AFC1"/>
<path d="M41 29.75C34.787 29.75 29.75 34.684 29.75 40.771V41.25C29.75 39.662 31.009 38.375 32.562 38.375C34.115 38.375 35.375 39.662 35.375 41.25C35.375 39.662 36.634 38.375 38.187 38.375C39.74 38.375 41 39.662 41 41.25C41 39.662 42.259 38.375 43.812 38.375C45.365 38.375 46.625 39.662 46.625 41.25C46.625 39.662 47.884 38.375 49.437 38.375C50.99 38.375 52.25 39.662 52.25 41.25V40.771C52.25 34.684 47.213 29.75 41 29.75Z" fill="#F3F3F1"/>
<path d="M45.25 45.75H36.75C36.198 45.75 35.75 46.198 35.75 46.75V51.25C35.75 51.802 36.198 52.25 36.75 52.25H45.25C45.802 52.25 46.25 51.802 46.25 51.25V46.75C46.25 46.198 45.802 45.75 45.25 45.75Z" fill="#D5AF36"/>
<path d="M42.125 29.806C41.755 29.77 41.38 29.75 41 29.75C34.787 29.75 29.75 34.684 29.75 40.771V41.25C29.75 39.766 30.854 38.559 32.266 38.406C33.294 33.806 37.249 30.28 42.125 29.806Z" fill="#D5DBE1"/>
<path d="M38 51.25V46.75C38 46.198 38.448 45.75 39 45.75H36.75C36.198 45.75 35.75 46.198 35.75 46.75V51.25C35.75 51.802 36.198 52.25 36.75 52.25H39C38.448 52.25 38 51.802 38 51.25Z" fill="#2B3367"/>
<path d="M52.25 42C51.836 42 51.5 41.664 51.5 41.25C51.5 40.078 50.575 39.125 49.437 39.125C48.299 39.125 47.375 40.078 47.375 41.25C47.375 41.664 47.039 42 46.625 42C46.211 42 45.875 41.664 45.875 41.25C45.875 40.078 44.95 39.125 43.812 39.125C42.674 39.125 41.75 40.078 41.75 41.25C41.75 41.664 41.414 42 41 42C40.586 42 40.25 41.664 40.25 41.25C40.25 40.078 39.325 39.125 38.187 39.125C37.049 39.125 36.125 40.078 36.125 41.25C36.125 41.664 35.789 42 35.375 42C34.961 42 34.625 41.664 34.625 41.25C34.625 40.078 33.7 39.125 32.562 39.125C31.424 39.125 30.5 40.078 30.5 41.25C30.5 41.664 30.164 42 29.75 42C29.336 42 29 41.664 29 41.25V40.771C29 34.28 34.383 29 41 29C47.617 29 53 34.28 53 40.771V41.25C53 41.664 52.664 42 52.25 42ZM43.812 37.625C44.954 37.625 45.972 38.175 46.625 39.027C47.277 38.174 48.296 37.625 49.437 37.625C50.048 37.625 50.625 37.783 51.128 38.06C49.91 33.708 45.831 30.5 41 30.5C36.169 30.5 32.09 33.708 30.871 38.06C31.375 37.783 31.951 37.625 32.562 37.625C33.704 37.625 34.722 38.175 35.375 39.027C36.027 38.174 37.046 37.625 38.187 37.625C39.329 37.625 40.347 38.175 41 39.027C41.652 38.175 42.671 37.625 43.812 37.625Z" fill="black"/>
<path d="M40.25 40.75H41.75V44H40.25V40.75Z" fill="black"/>
<path d="M45.25 53H36.75C35.785 53 35 52.215 35 51.25V46.75C35 45.785 35.785 45 36.75 45H45.25C46.215 45 47 45.785 47 46.75V51.25C47 52.215 46.215 53 45.25 53ZM36.75 46.5C36.612 46.5 36.5 46.612 36.5 46.75V51.25C36.5 51.388 36.612 51.5 36.75 51.5H45.25C45.388 51.5 45.5 51.388 45.5 51.25V46.75C45.5 46.612 45.388 46.5 45.25 46.5H36.75Z" fill="black"/>
<path d="M41 47.5H44V49H41V47.5Z" fill="black"/>
<path d="M25 51.5H57V53H25V51.5Z" fill="black"/>
</svg>
