<svg width="82" height="82" viewBox="0 0 82 82" fill="none" xmlns="http://www.w3.org/2000/svg">
<circle cx="41" cy="41" r="41" fill="#F4F5F7"/>
<path d="M31.377 27.167C38.294 27.167 43.044 23.584 46.377 23.584C49.71 23.584 56.71 25.5 56.71 40.833C56.71 56.166 47.293 58.416 43.627 58.416C26.46 58.417 19.127 27.167 31.377 27.167Z" fill="#EFEFEF"/>
<path d="M52.5 34C51.673 34 51 33.327 51 32.5C51 31.673 51.673 31 52.5 31C53.327 31 54 31.673 54 32.5C54 33.327 53.327 34 52.5 34ZM52.5 32C52.224 32 52 32.224 52 32.5C52 32.776 52.224 33 52.5 33C52.776 33 53 32.776 53 32.5C53 32.224 52.776 32 52.5 32Z" fill="#A4AFC1"/>
<path d="M34.25 53V52.25C34.25 51.422 33.578 50.75 32.75 50.75H31.25C30.422 50.75 29.75 51.422 29.75 52.25V53H34.25Z" fill="#F3F3F1"/>
<path d="M52.25 53V52.25C52.25 51.422 51.578 50.75 50.75 50.75H49.25C48.422 50.75 47.75 51.422 47.75 52.25V53H52.25Z" fill="#F3F3F1"/>
<path d="M43.25 53V52.25C43.25 51.422 42.578 50.75 41.75 50.75H40.25C39.422 50.75 38.75 51.422 38.75 52.25V53H43.25Z" fill="#F3F3F1"/>
<path d="M37.533 36.25L36.75 32.083L39.043 33.101L41 29.75L42.957 33.101L45.25 32.083L44.467 36.25H37.533Z" fill="#FFCC4D"/>
<path d="M33.125 50.803C33.004 50.772 32.88 50.75 32.75 50.75H31.25C30.422 50.75 29.75 51.422 29.75 52.25V53H32V52.25C32 51.552 32.479 50.97 33.125 50.803Z" fill="#D5DBE1"/>
<path d="M51.125 50.803C51.004 50.772 50.88 50.75 50.75 50.75H49.25C48.422 50.75 47.75 51.422 47.75 52.25V53H50V52.25C50 51.552 50.479 50.97 51.125 50.803Z" fill="#D5DBE1"/>
<path d="M42.125 50.803C42.004 50.772 41.88 50.75 41.75 50.75H40.25C39.422 50.75 38.75 51.422 38.75 52.25V53H41V52.25C41 51.552 41.479 50.97 42.125 50.803Z" fill="#D5DBE1"/>
<path d="M39.043 33.101L36.75 32.083L37.533 36.25H39.783L39.155 32.91L39.043 33.101Z" fill="#D5AF36"/>
<path d="M50.75 44H49.25V41.25C49.25 41.112 49.138 41 49 41H33C32.862 41 32.75 41.112 32.75 41.25V44H31.25V41.25C31.25 40.285 32.035 39.5 33 39.5H49C49.965 39.5 50.75 40.285 50.75 41.25V44Z" fill="black"/>
<path d="M40.25 36H41.75V44H40.25V36Z" fill="black"/>
<path d="M41 49C41.8284 49 42.5 48.3284 42.5 47.5C42.5 46.6716 41.8284 46 41 46C40.1716 46 39.5 46.6716 39.5 47.5C39.5 48.3284 40.1716 49 41 49Z" fill="black"/>
<path d="M44 53H42.5V52.25C42.5 51.836 42.164 51.5 41.75 51.5H40.25C39.836 51.5 39.5 51.836 39.5 52.25V53H38V52.25C38 51.009 39.009 50 40.25 50H41.75C42.991 50 44 51.009 44 52.25V53Z" fill="black"/>
<path d="M50 49C50.8284 49 51.5 48.3284 51.5 47.5C51.5 46.6716 50.8284 46 50 46C49.1716 46 48.5 46.6716 48.5 47.5C48.5 48.3284 49.1716 49 50 49Z" fill="black"/>
<path d="M53 53H51.5V52.25C51.5 51.836 51.164 51.5 50.75 51.5H49.25C48.836 51.5 48.5 51.836 48.5 52.25V53H47V52.25C47 51.009 48.009 50 49.25 50H50.75C51.991 50 53 51.009 53 52.25V53Z" fill="black"/>
<path d="M32 49C32.8284 49 33.5 48.3284 33.5 47.5C33.5 46.6716 32.8284 46 32 46C31.1716 46 30.5 46.6716 30.5 47.5C30.5 48.3284 31.1716 49 32 49Z" fill="black"/>
<path d="M35 53H33.5V52.25C33.5 51.836 33.164 51.5 32.75 51.5H31.25C30.836 51.5 30.5 51.836 30.5 52.25V53H29V52.25C29 51.009 30.009 50 31.25 50H32.75C33.991 50 35 51.009 35 52.25V53Z" fill="black"/>
<path d="M44.467 37H37.532C37.171 37 36.862 36.743 36.795 36.389L36.012 32.222C35.961 31.948 36.065 31.668 36.284 31.495C36.503 31.323 36.799 31.284 37.054 31.398L38.734 32.144L40.352 29.373C40.622 28.912 41.378 28.912 41.648 29.373L43.266 32.144L44.946 31.398C45.201 31.284 45.497 31.323 45.716 31.495C45.935 31.668 46.039 31.948 45.988 32.222L45.205 36.389C45.138 36.743 44.828 37 44.467 37ZM38.155 35.5H43.845L44.249 33.348L43.26 33.787C42.909 33.94 42.5 33.809 42.308 33.479L41 31.238L39.691 33.48C39.497 33.81 39.087 33.941 38.739 33.788L37.75 33.349L38.155 35.5Z" fill="black"/>
</svg>
