<svg width="82" height="82" viewBox="0 0 82 82" fill="none" xmlns="http://www.w3.org/2000/svg">
<circle cx="41" cy="41" r="41" fill="#F4F5F7"/>
<path d="M31.377 54.833C38.294 54.833 43.044 58.416 46.377 58.416C49.71 58.416 56.71 56.5 56.71 41.167C56.71 25.834 47.293 23.583 43.627 23.583C26.46 23.583 19.127 54.833 31.377 54.833Z" fill="#EFEFEF"/>
<path d="M51.5 30C50.673 30 50 29.327 50 28.5C50 27.673 50.673 27 51.5 27C52.327 27 53 27.673 53 28.5C53 29.327 52.327 30 51.5 30ZM51.5 28C51.224 28 51 28.225 51 28.5C51 28.775 51.224 29 51.5 29C51.776 29 52 28.775 52 28.5C52 28.225 51.776 28 51.5 28Z" fill="#A4AFC1"/>
<path d="M51.25 33.75C51.8 33.75 52.25 34.2 52.25 34.75V45.75H29.75V34.75C29.75 34.2 30.2 33.75 30.75 33.75H51.25Z" fill="#F3F3F1"/>
<path d="M29.75 45.75H52.25V48.25C52.25 48.802 51.802 49.25 51.25 49.25H30.75C30.198 49.25 29.75 48.802 29.75 48.25V45.75Z" fill="#FFCC4D"/>
<path d="M42.75 49.25C42.75 49.25 42.995 51.015 44.23 52.25H44.25H37.75C39 51 39.23 49.25 39.23 49.25H42.75Z" fill="#FFCC4D"/>
<path d="M46 38.25C46.6904 38.25 47.25 37.6904 47.25 37C47.25 36.3096 46.6904 35.75 46 35.75C45.3096 35.75 44.75 36.3096 44.75 37C44.75 37.6904 45.3096 38.25 46 38.25Z" fill="#FFCC4D"/>
<path d="M42 43.25C42.6904 43.25 43.25 42.6904 43.25 42C43.25 41.3096 42.6904 40.75 42 40.75C41.3096 40.75 40.75 41.3096 40.75 42C40.75 42.6904 41.3096 43.25 42 43.25Z" fill="#FFCC4D"/>
<path d="M36 40.25C36.6904 40.25 37.25 39.6904 37.25 39C37.25 38.3096 36.6904 37.75 36 37.75C35.3096 37.75 34.75 38.3096 34.75 39C34.75 39.6904 35.3096 40.25 36 40.25Z" fill="#FFCC4D"/>
<path d="M33 33.75H30.75C30.2 33.75 29.75 34.2 29.75 34.75V45.75H32V34.75C32 34.2 32.45 33.75 33 33.75Z" fill="#D5DBE1"/>
<path d="M32 48.25V45.75H29.75V48.25C29.75 48.802 30.198 49.25 30.75 49.25H33C32.448 49.25 32 48.802 32 48.25Z" fill="#D5AF36"/>
<path d="M39.23 49.25C39.23 49.25 39 51 37.75 52.25H40C41.25 51 41.48 49.25 41.48 49.25H39.23Z" fill="#D5AF36"/>
<path d="M47 37C47 36.81 47.049 36.635 47.125 36.474C46.925 36.049 46.5 35.75 46 35.75C45.31 35.75 44.75 36.31 44.75 37C44.75 37.69 45.31 38.25 46 38.25C46.5 38.25 46.925 37.951 47.125 37.526C47.049 37.365 47 37.19 47 37Z" fill="#D5AF36"/>
<path d="M43 42C43 41.81 43.049 41.635 43.125 41.474C42.925 41.049 42.5 40.75 42 40.75C41.31 40.75 40.75 41.31 40.75 42C40.75 42.69 41.31 43.25 42 43.25C42.5 43.25 42.925 42.951 43.125 42.526C43.049 42.365 43 42.19 43 42Z" fill="#D5AF36"/>
<path d="M37 39C37 38.81 37.049 38.635 37.125 38.474C36.925 38.049 36.5 37.75 36 37.75C35.31 37.75 34.75 38.31 34.75 39C34.75 39.69 35.31 40.25 36 40.25C36.5 40.25 36.925 39.951 37.125 39.526C37.049 39.365 37 39.19 37 39Z" fill="#D5AF36"/>
<path d="M46 39C44.897 39 44 38.103 44 37C44 35.897 44.897 35 46 35C47.103 35 48 35.897 48 37C48 38.103 47.103 39 46 39ZM46 36.5C45.724 36.5 45.5 36.725 45.5 37C45.5 37.275 45.724 37.5 46 37.5C46.276 37.5 46.5 37.275 46.5 37C46.5 36.725 46.276 36.5 46 36.5Z" fill="black"/>
<path d="M42 44C40.897 44 40 43.103 40 42C40 40.897 40.897 40 42 40C43.103 40 44 40.897 44 42C44 43.103 43.103 44 42 44ZM42 41.5C41.724 41.5 41.5 41.725 41.5 42C41.5 42.275 41.724 42.5 42 42.5C42.276 42.5 42.5 42.275 42.5 42C42.5 41.725 42.276 41.5 42 41.5Z" fill="black"/>
<path d="M36 41C34.897 41 34 40.103 34 39C34 37.897 34.897 37 36 37C37.103 37 38 37.897 38 39C38 40.103 37.103 41 36 41ZM36 38.5C35.724 38.5 35.5 38.725 35.5 39C35.5 39.275 35.724 39.5 36 39.5C36.276 39.5 36.5 39.275 36.5 39C36.5 38.725 36.276 38.5 36 38.5Z" fill="black"/>
<path d="M42.3533 40.3641L44.493 37.6827L45.666 38.6187L43.5263 41.3001L42.3533 40.3641Z" fill="black"/>
<path d="M37.0022 40.3315L37.6701 38.9866L41.0122 40.6465L40.3443 41.9914L37.0022 40.3315Z" fill="black"/>
<path d="M51.25 50H30.75C29.785 50 29 49.215 29 48.25V34.75C29 33.785 29.785 33 30.75 33H51.25C52.215 33 53 33.785 53 34.75V48.25C53 49.215 52.215 50 51.25 50ZM30.75 34.5C30.614 34.5 30.5 34.614 30.5 34.75V48.25C30.5 48.386 30.614 48.5 30.75 48.5H51.25C51.386 48.5 51.5 48.386 51.5 48.25V34.75C51.5 34.614 51.386 34.5 51.25 34.5H30.75Z" fill="black"/>
<path d="M29.75 45H52.25V46.5H29.75V45Z" fill="black"/>
<path d="M44.2498 53H37.7498C37.4468 53 37.1728 52.817 37.0568 52.537C36.9408 52.257 37.0048 51.934 37.2198 51.72C38.2608 50.679 38.4848 49.167 38.4868 49.153L39.9738 49.348C39.9658 49.407 39.8268 50.414 39.2298 51.5H42.7528C42.1618 50.42 42.0148 49.412 42.0068 49.353L43.4918 49.145C43.4938 49.16 43.7128 50.603 44.6758 51.633C44.8718 51.769 44.9998 51.994 44.9998 52.25C44.9998 52.664 44.6638 53 44.2498 53Z" fill="black"/>
</svg>
