<svg width="82" height="82" viewBox="0 0 82 82" fill="none" xmlns="http://www.w3.org/2000/svg">
<circle cx="41" cy="41" r="41" fill="#F4F5F7"/>
<path d="M54.833 50.623C54.833 43.706 58.416 38.956 58.416 35.623C58.416 32.29 56.5 25.29 41.167 25.29C25.834 25.29 23.583 34.707 23.583 38.373C23.583 55.54 54.833 62.873 54.833 50.623Z" fill="#EFEFEF"/>
<path d="M45.625 24.25H46.625V26.25H45.625V24.25Z" fill="#A4AFC1"/>
<path d="M47.875 27.25H49.875V28.25H47.875V27.25Z" fill="#A4AFC1"/>
<path d="M43.25 52.25H32.75C31.645 52.25 30.75 51.355 30.75 50.25V31.75C30.75 30.645 31.645 29.75 32.75 29.75H43.25C44.355 29.75 45.25 30.645 45.25 31.75V50.25C45.25 51.355 44.355 52.25 43.25 52.25Z" fill="#F3F3F1"/>
<path d="M33.25 29.75C34.078 29.75 34.75 30.422 34.75 31.25C34.75 31.802 35.198 32.25 35.75 32.25H40.25C40.802 32.25 41.25 31.802 41.25 31.25C41.25 30.422 41.922 29.75 42.75 29.75H33.25Z" fill="#D5AF36"/>
<path d="M50 38.25C50.6904 38.25 51.25 37.6904 51.25 37C51.25 36.3096 50.6904 35.75 50 35.75C49.3096 35.75 48.75 36.3096 48.75 37C48.75 37.6904 49.3096 38.25 50 38.25Z" fill="#D5AF36"/>
<path d="M46 43.25C46.6904 43.25 47.25 42.6904 47.25 42C47.25 41.3096 46.6904 40.75 46 40.75C45.3096 40.75 44.75 41.3096 44.75 42C44.75 42.6904 45.3096 43.25 46 43.25Z" fill="#D5AF36"/>
<path d="M40 40.25C40.6904 40.25 41.25 39.6904 41.25 39C41.25 38.3096 40.6904 37.75 40 37.75C39.3096 37.75 38.75 38.3096 38.75 39C38.75 39.6904 39.3096 40.25 40 40.25Z" fill="#D5AF36"/>
<path d="M33 50.25V31.75C33 30.645 33.895 29.75 35 29.75H32.75C31.645 29.75 30.75 30.645 30.75 31.75V50.25C30.75 51.355 31.645 52.25 32.75 52.25H35C33.895 52.25 33 51.355 33 50.25Z" fill="#D5DBE1"/>
<path d="M37 31.25C37 30.422 36.328 29.75 35.5 29.75H33.25C34.078 29.75 34.75 30.422 34.75 31.25C34.75 31.802 35.198 32.25 35.75 32.25H38C37.448 32.25 37 31.802 37 31.25Z" fill="#2B3367"/>
<path d="M51 37C51 36.81 51.049 36.635 51.125 36.474C50.925 36.049 50.5 35.75 50 35.75C49.31 35.75 48.75 36.31 48.75 37C48.75 37.69 49.31 38.25 50 38.25C50.5 38.25 50.925 37.951 51.125 37.526C51.049 37.365 51 37.19 51 37Z" fill="#D5AF36"/>
<path d="M47 42C47 41.81 47.049 41.635 47.125 41.474C46.925 41.049 46.5 40.75 46 40.75C45.31 40.75 44.75 41.31 44.75 42C44.75 42.69 45.31 43.25 46 43.25C46.5 43.25 46.925 42.951 47.125 42.526C47.049 42.365 47 42.19 47 42Z" fill="#D5AF36"/>
<path d="M41 39C41 38.81 41.049 38.635 41.125 38.474C40.925 38.049 40.5 37.75 40 37.75C39.31 37.75 38.75 38.31 38.75 39C38.75 39.69 39.31 40.25 40 40.25C40.5 40.25 40.925 39.951 41.125 39.526C41.049 39.365 41 39.19 41 39Z" fill="#D5AF36"/>
<path d="M50 39C48.897 39 48 38.103 48 37C48 35.897 48.897 35 50 35C51.103 35 52 35.897 52 37C52 38.103 51.103 39 50 39ZM50 36.5C49.724 36.5 49.5 36.725 49.5 37C49.5 37.275 49.724 37.5 50 37.5C50.276 37.5 50.5 37.275 50.5 37C50.5 36.725 50.276 36.5 50 36.5Z" fill="black"/>
<path d="M46 44C44.897 44 44 43.103 44 42C44 40.897 44.897 40 46 40C47.103 40 48 40.897 48 42C48 43.103 47.103 44 46 44ZM46 41.5C45.724 41.5 45.5 41.725 45.5 42C45.5 42.275 45.724 42.5 46 42.5C46.276 42.5 46.5 42.275 46.5 42C46.5 41.725 46.276 41.5 46 41.5Z" fill="black"/>
<path d="M40 41C38.897 41 38 40.103 38 39C38 37.897 38.897 37 40 37C41.103 37 42 37.897 42 39C42 40.103 41.103 41 40 41ZM40 38.5C39.724 38.5 39.5 38.725 39.5 39C39.5 39.275 39.724 39.5 40 39.5C40.276 39.5 40.5 39.275 40.5 39C40.5 38.725 40.276 38.5 40 38.5Z" fill="black"/>
<path d="M46.3542 40.3621L48.4939 37.6806L49.6669 38.6166L47.5272 41.2981L46.3542 40.3621Z" fill="black"/>
<path d="M41.0022 40.3296L41.6701 38.9847L45.0122 40.6445L44.3443 41.9894L41.0022 40.3296Z" fill="black"/>
<path d="M40.25 33H35.75C34.785 33 34 32.215 34 31.25C34 30.837 33.664 30.5 33.25 30.5H32.5V29H33.25C34.491 29 35.5 30.01 35.5 31.25C35.5 31.388 35.612 31.5 35.75 31.5H40.25C40.388 31.5 40.5 31.388 40.5 31.25C40.5 30.01 41.509 29 42.75 29H43.5V30.5H42.75C42.336 30.5 42 30.837 42 31.25C42 32.215 41.215 33 40.25 33Z" fill="black"/>
<path d="M43.25 53H32.75C31.233 53 30 51.767 30 50.25V31.75C30 30.233 31.233 29 32.75 29H43.25C44.767 29 46 30.233 46 31.75V38.33H44.5V31.75C44.5 31.061 43.939 30.5 43.25 30.5H32.75C32.061 30.5 31.5 31.061 31.5 31.75V50.25C31.5 50.939 32.061 51.5 32.75 51.5H43.25C43.939 51.5 44.5 50.939 44.5 50.25V45.68H46V50.25C46 51.767 44.767 53 43.25 53Z" fill="black"/>
</svg>
